<?xml version="1.0" encoding="UTF-8" standalone="no"?>
<!DOCTYPE svg PUBLIC "-//W3C//DTD SVG 1.1//EN"
 "http://www.w3.org/Graphics/SVG/1.1/DTD/svg11.dtd">
<!-- Generated by graphviz version 2.43.0 (0)
 -->
<!-- Title: architecture Pages: 1 -->
<svg width="1046pt" height="314pt"
 viewBox="0.00 0.00 1046.20 314.20" xmlns="http://www.w3.org/2000/svg" xmlns:xlink="http://www.w3.org/1999/xlink">
<g id="graph0" class="graph" transform="scale(1 1) rotate(0) translate(21.6 292.6)">
<title>architecture</title>
<polygon fill="white" stroke="transparent" points="-21.6,21.6 -21.6,-292.6 1024.6,-292.6 1024.6,21.6 -21.6,21.6"/>
<g id="clust1" class="cluster">
<title>cluster_myredis</title>
<path fill="#fbfbfb" stroke="#b0bec5" d="M20,-74C20,-74 783,-74 783,-74 789,-74 795,-80 795,-86 795,-86 795,-251 795,-251 795,-257 789,-263 783,-263 783,-263 20,-263 20,-263 14,-263 8,-257 8,-251 8,-251 8,-86 8,-86 8,-80 14,-74 20,-74"/>
<text text-anchor="middle" x="44" y="-247.8" font-family="Helvetica,sans-Serif" font-size="14.00">myredis</text>
</g>
<!-- client -->
<g id="node1" class="node">
<title>client</title>
<path fill="#eceff1" stroke="#455a64" stroke-width="1.2" d="M991,-36C991,-36 890,-36 890,-36 884,-36 878,-30 878,-24 878,-24 878,-12 878,-12 878,-6 884,0 890,0 890,0 991,0 991,0 997,0 1003,-6 1003,-12 1003,-12 1003,-24 1003,-24 1003,-30 997,-36 991,-36"/>
<text text-anchor="middle" x="940.5" y="-15.2" font-family="Helvetica,sans-Serif" font-size="11.00">redis&#45;cli / redis&#45;py</text>
</g>
<!-- server -->
<g id="node2" class="node">
<title>server</title>
<path fill="#e3f2fd" stroke="#455a64" stroke-width="1.2" d="M106,-176C106,-176 28,-176 28,-176 22,-176 16,-170 16,-164 16,-164 16,-150 16,-150 16,-144 22,-138 28,-138 28,-138 106,-138 106,-138 112,-138 118,-144 118,-150 118,-150 118,-164 118,-164 118,-170 112,-176 106,-176"/>
<text text-anchor="middle" x="67" y="-160.2" font-family="Helvetica,sans-Serif" font-size="11.00">server.py</text>
<text text-anchor="middle" x="67" y="-148.2" font-family="Helvetica,sans-Serif" font-size="11.00">(asyncio TCP)</text>
</g>
<!-- client&#45;&gt;server -->
<g id="edge1" class="edge">
<title>client&#45;&gt;server</title>
<path fill="none" stroke="#78909c" d="M877.95,-11.4C831.56,-6.99 766.36,-2 709,-2 274.5,-2 274.5,-2 274.5,-2 190.45,-2 118.75,-85.15 86.39,-129.65"/>
<polygon fill="#78909c" stroke="#78909c" points="83.4,-127.82 80.45,-137.99 89.1,-131.87 83.4,-127.82"/>
<text text-anchor="middle" x="471" y="-4.8" font-family="Helvetica,sans-Serif" font-size="9.00">RESP2 / TCP</text>
</g>
<!-- parser -->
<g id="node3" class="node">
<title>parser</title>
<path fill="#e8f5e9" stroke="#455a64" stroke-width="1.2" d="M337,-211C337,-211 214,-211 214,-211 208,-211 202,-205 202,-199 202,-199 202,-185 202,-185 202,-179 208,-173 214,-173 214,-173 337,-173 337,-173 343,-173 349,-179 349,-185 349,-185 349,-199 349,-199 349,-205 343,-211 337,-211"/>
<text text-anchor="middle" x="275.5" y="-195.2" font-family="Helvetica,sans-Serif" font-size="11.00">protocol.py</text>
<text text-anchor="middle" x="275.5" y="-183.2" font-family="Helvetica,sans-Serif" font-size="11.00">parser &#160;(RESP → args)</text>
</g>
<!-- server&#45;&gt;parser -->
<g id="edge2" class="edge">
<title>server&#45;&gt;parser</title>
<path fill="none" stroke="#78909c" d="M118.25,-165.52C140.29,-169.25 166.74,-173.74 191.56,-177.94"/>
<polygon fill="#78909c" stroke="#78909c" points="191.27,-181.44 201.71,-179.66 192.44,-174.54 191.27,-181.44"/>
<text text-anchor="middle" x="160" y="-178.8" font-family="Helvetica,sans-Serif" font-size="9.00">feed bytes</text>
</g>
<!-- registry -->
<g id="node4" class="node">
<title>registry</title>
<path fill="#fff3e0" stroke="#455a64" stroke-width="1.2" d="M525,-232C525,-232 417,-232 417,-232 411,-232 405,-226 405,-220 405,-220 405,-206 405,-206 405,-200 411,-194 417,-194 417,-194 525,-194 525,-194 531,-194 537,-200 537,-206 537,-206 537,-220 537,-220 537,-226 531,-232 525,-232"/>
<text text-anchor="middle" x="471" y="-216.2" font-family="Helvetica,sans-Serif" font-size="11.00">commands.py</text>
<text text-anchor="middle" x="471" y="-204.2" font-family="Helvetica,sans-Serif" font-size="11.00">registry + dispatch</text>
</g>
<!-- parser&#45;&gt;registry -->
<g id="edge3" class="edge">
<title>parser&#45;&gt;registry</title>
<path fill="none" stroke="#78909c" d="M349.1,-199.88C364,-201.5 379.72,-203.2 394.71,-204.83"/>
<polygon fill="#78909c" stroke="#78909c" points="394.64,-208.34 404.95,-205.94 395.39,-201.38 394.64,-208.34"/>
<text text-anchor="middle" x="377" y="-205.8" font-family="Helvetica,sans-Serif" font-size="9.00">args</text>
</g>
<!-- encoder -->
<g id="node5" class="node">
<title>encoder</title>
<path fill="#e8f5e9" stroke="#455a64" stroke-width="1.2" d="M775,-231C775,-231 641,-231 641,-231 635,-231 629,-225 629,-219 629,-219 629,-205 629,-205 629,-199 635,-193 641,-193 641,-193 775,-193 775,-193 781,-193 787,-199 787,-205 787,-205 787,-219 787,-219 787,-225 781,-231 775,-231"/>
<text text-anchor="middle" x="708" y="-215.2" font-family="Helvetica,sans-Serif" font-size="11.00">protocol.py</text>
<text text-anchor="middle" x="708" y="-203.2" font-family="Helvetica,sans-Serif" font-size="11.00">encoder (value → RESP)</text>
</g>
<!-- registry&#45;&gt;encoder -->
<g id="edge5" class="edge">
<title>registry&#45;&gt;encoder</title>
<path fill="none" stroke="#78909c" d="M537.15,-212.72C562.32,-212.62 591.52,-212.49 618.54,-212.38"/>
<polygon fill="#78909c" stroke="#78909c" points="618.79,-215.88 628.78,-212.33 618.76,-208.88 618.79,-215.88"/>
<text text-anchor="middle" x="583" y="-214.8" font-family="Helvetica,sans-Serif" font-size="9.00">result</text>
</g>
<!-- storage -->
<g id="node6" class="node">
<title>storage</title>
<path fill="#fce4ec" stroke="#455a64" stroke-width="1.2" d="M767,-168.48C767,-171.11 740.56,-173.25 708,-173.25 675.44,-173.25 649,-171.11 649,-168.48 649,-168.48 649,-125.52 649,-125.52 649,-122.89 675.44,-120.75 708,-120.75 740.56,-120.75 767,-122.89 767,-125.52 767,-125.52 767,-168.48 767,-168.48"/>
<path fill="none" stroke="#455a64" stroke-width="1.2" d="M767,-168.48C767,-165.84 740.56,-163.7 708,-163.7 675.44,-163.7 649,-165.84 649,-168.48"/>
<text text-anchor="middle" x="708" y="-150.2" font-family="Helvetica,sans-Serif" font-size="11.00">storage.py</text>
<text text-anchor="middle" x="708" y="-138.2" font-family="Helvetica,sans-Serif" font-size="11.00">in&#45;memory store</text>
</g>
<!-- registry&#45;&gt;storage -->
<g id="edge4" class="edge">
<title>registry&#45;&gt;storage</title>
<path fill="none" stroke="#78909c" d="M537.15,-194.7C568.91,-185.78 607.08,-175.06 639.19,-166.04"/>
<polygon fill="#78909c" stroke="#78909c" points="640.26,-169.38 648.94,-163.31 638.37,-162.64 640.26,-169.38"/>
<text text-anchor="middle" x="583" y="-189.8" font-family="Helvetica,sans-Serif" font-size="9.00">get / set / …</text>
</g>
<!-- encoder&#45;&gt;client -->
<g id="edge6" class="edge">
<title>encoder&#45;&gt;client</title>
<path fill="none" stroke="#78909c" d="M775.04,-192.96C782.03,-189.78 788.83,-186.15 795,-182 850.73,-144.51 898.48,-80.47 922.63,-44.5"/>
<polygon fill="#78909c" stroke="#78909c" points="925.66,-46.27 928.26,-36 919.82,-42.41 925.66,-46.27"/>
<text text-anchor="middle" x="832.5" y="-173.8" font-family="Helvetica,sans-Serif" font-size="9.00">RESP2 reply</text>
</g>
<!-- expir -->
<g id="node7" class="node">
<title>expir</title>
<path fill="#f3e5f5" stroke="#455a64" stroke-width="1.2" d="M508.5,-176C508.5,-176 433.5,-176 433.5,-176 427.5,-176 421.5,-170 421.5,-164 421.5,-164 421.5,-150 421.5,-150 421.5,-144 427.5,-138 433.5,-138 433.5,-138 508.5,-138 508.5,-138 514.5,-138 520.5,-144 520.5,-150 520.5,-150 520.5,-164 520.5,-164 520.5,-170 514.5,-176 508.5,-176"/>
<text text-anchor="middle" x="471" y="-160.2" font-family="Helvetica,sans-Serif" font-size="11.00">expiration.py</text>
<text text-anchor="middle" x="471" y="-148.2" font-family="Helvetica,sans-Serif" font-size="11.00">lazy + active</text>
</g>
<!-- expir&#45;&gt;storage -->
<g id="edge7" class="edge">
<title>expir&#45;&gt;storage</title>
<path fill="none" stroke="#78909c" stroke-dasharray="5,2" d="M530.82,-149.88C538.93,-149.11 547.17,-148.45 555,-148 582.33,-146.43 612.47,-145.97 638.65,-145.98"/>
<polygon fill="#78909c" stroke="#78909c" points="530.25,-146.41 520.65,-150.89 530.95,-153.38 530.25,-146.41"/>
<polygon fill="#78909c" stroke="#78909c" points="638.84,-149.48 648.85,-146 638.86,-142.48 638.84,-149.48"/>
<text text-anchor="middle" x="583" y="-150.8" font-family="Helvetica,sans-Serif" font-size="9.00">expire</text>
</g>
<!-- persist -->
<g id="node8" class="node">
<title>persist</title>
<path fill="#f3e5f5" stroke="#455a64" stroke-width="1.2" d="M513,-120C513,-120 429,-120 429,-120 423,-120 417,-114 417,-108 417,-108 417,-94 417,-94 417,-88 423,-82 429,-82 429,-82 513,-82 513,-82 519,-82 525,-88 525,-94 525,-94 525,-108 525,-108 525,-114 519,-120 513,-120"/>
<text text-anchor="middle" x="471" y="-104.2" font-family="Helvetica,sans-Serif" font-size="11.00">persistence.py</text>
<text text-anchor="middle" x="471" y="-92.2" font-family="Helvetica,sans-Serif" font-size="11.00">RDB snapshot</text>
</g>
<!-- persist&#45;&gt;storage -->
<g id="edge8" class="edge">
<title>persist&#45;&gt;storage</title>
<path fill="none" stroke="#78909c" stroke-dasharray="5,2" d="M535.24,-113.38C567.26,-119.65 606.19,-127.27 638.88,-133.67"/>
<polygon fill="#78909c" stroke="#78909c" points="535.52,-109.87 525.03,-111.38 534.17,-116.74 535.52,-109.87"/>
<polygon fill="#78909c" stroke="#78909c" points="638.32,-137.12 648.81,-135.61 639.66,-130.25 638.32,-137.12"/>
</g>
<!-- disk -->
<g id="node9" class="node">
<title>disk</title>
<polygon fill="#eceff1" stroke="#455a64" stroke-width="1.2" points="741.5,-66 668.5,-66 668.5,-30 747.5,-30 747.5,-60 741.5,-66"/>
<polyline fill="none" stroke="#455a64" stroke-width="1.2" points="741.5,-66 741.5,-60 "/>
<polyline fill="none" stroke="#455a64" stroke-width="1.2" points="747.5,-60 741.5,-60 "/>
<text text-anchor="middle" x="708" y="-45.2" font-family="Helvetica,sans-Serif" font-size="11.00">dump.rdb</text>
</g>
<!-- persist&#45;&gt;disk -->
<g id="edge9" class="edge">
<title>persist&#45;&gt;disk</title>
<path fill="none" stroke="#78909c" stroke-dasharray="5,2" d="M535,-86.79C573.7,-78.06 622.52,-67.05 658.25,-58.99"/>
<polygon fill="#78909c" stroke="#78909c" points="534.02,-83.43 525.03,-89.04 535.56,-90.25 534.02,-83.43"/>
<polygon fill="#78909c" stroke="#78909c" points="659.45,-62.31 668.43,-56.7 657.9,-55.48 659.45,-62.31"/>
<text text-anchor="middle" x="583" y="-82.8" font-family="Helvetica,sans-Serif" font-size="9.00">save / load</text>
</g>
</g>
</svg>
