<?xml version="1.0" encoding="UTF-8" standalone="no"?>
<!DOCTYPE svg PUBLIC "-//W3C//DTD SVG 1.1//EN"
 "http://www.w3.org/Graphics/SVG/1.1/DTD/svg11.dtd">
<!-- Generated by graphviz version 2.43.0 (0)
 -->
<!-- Title: architecture Pages: 1 -->
<svg width="1483pt" height="483pt"
 viewBox="0.00 0.00 1482.60 482.60" xmlns="http://www.w3.org/2000/svg" xmlns:xlink="http://www.w3.org/1999/xlink">
<g id="graph0" class="graph" transform="scale(1 1) rotate(0) translate(28.8 453.8)">
<title>architecture</title>
<polygon fill="white" stroke="transparent" points="-28.8,28.8 -28.8,-453.8 1453.8,-453.8 1453.8,28.8 -28.8,28.8"/>
<g id="clust1" class="cluster">
<title>cluster_myredis</title>
<path fill="#fbfbfb" stroke="#b0bec5" d="M20,-113C20,-113 1112,-113 1112,-113 1118,-113 1124,-119 1124,-125 1124,-125 1124,-405 1124,-405 1124,-411 1118,-417 1112,-417 1112,-417 20,-417 20,-417 14,-417 8,-411 8,-405 8,-405 8,-125 8,-125 8,-119 14,-113 20,-113"/>
<text text-anchor="middle" x="52.5" y="-398.6" font-family="Helvetica,sans-Serif" font-size="18.00">myredis</text>
</g>
<!-- client -->
<g id="node1" class="node">
<title>client</title>
<path fill="#eceff1" stroke="#455a64" stroke-width="1.5" d="M1413,-54.5C1413,-54.5 1262,-54.5 1262,-54.5 1256,-54.5 1250,-48.5 1250,-42.5 1250,-42.5 1250,-23.5 1250,-23.5 1250,-17.5 1256,-11.5 1262,-11.5 1262,-11.5 1413,-11.5 1413,-11.5 1419,-11.5 1425,-17.5 1425,-23.5 1425,-23.5 1425,-42.5 1425,-42.5 1425,-48.5 1419,-54.5 1413,-54.5"/>
<text text-anchor="middle" x="1337.5" y="-29.5" font-family="Helvetica,sans-Serif" font-size="15.00">redis&#45;cli / redis&#45;py</text>
</g>
<!-- server -->
<g id="node2" class="node">
<title>server</title>
<path fill="#e3f2fd" stroke="#455a64" stroke-width="1.5" d="M146,-186C146,-186 28,-186 28,-186 22,-186 16,-180 16,-174 16,-174 16,-138 16,-138 16,-132 22,-126 28,-126 28,-126 146,-126 146,-126 152,-126 158,-132 158,-138 158,-138 158,-174 158,-174 158,-180 152,-186 146,-186"/>
<text text-anchor="middle" x="87" y="-161" font-family="Helvetica,sans-Serif" font-size="15.00">server.py</text>
<text text-anchor="middle" x="87" y="-144" font-family="Helvetica,sans-Serif" font-size="15.00">(asyncio TCP)</text>
</g>
<!-- client&#45;&gt;server -->
<g id="edge1" class="edge">
<title>client&#45;&gt;server</title>
<path fill="none" stroke="#78909c" d="M1249.57,-25.83C964.93,-25.83 87,-25.83 87,-25.83 87,-25.83 87,-115.81 87,-115.81"/>
<polygon fill="#78909c" stroke="#78909c" points="83.5,-115.81 87,-125.81 90.5,-115.81 83.5,-115.81"/>
<text text-anchor="middle" x="671.5" y="-3.4" font-family="Helvetica,sans-Serif" font-size="12.00">RESP2 / TCP</text>
</g>
<!-- parser -->
<g id="node3" class="node">
<title>parser</title>
<path fill="#e8f5e9" stroke="#455a64" stroke-width="1.5" d="M479,-310C479,-310 296,-310 296,-310 290,-310 284,-304 284,-298 284,-298 284,-262 284,-262 284,-256 290,-250 296,-250 296,-250 479,-250 479,-250 485,-250 491,-256 491,-262 491,-262 491,-298 491,-298 491,-304 485,-310 479,-310"/>
<text text-anchor="middle" x="387.5" y="-285" font-family="Helvetica,sans-Serif" font-size="15.00">protocol.py</text>
<text text-anchor="middle" x="387.5" y="-268" font-family="Helvetica,sans-Serif" font-size="15.00">parser &#160;(RESP &#45;&gt; args)</text>
</g>
<!-- server&#45;&gt;parser -->
<g id="edge2" class="edge">
<title>server&#45;&gt;parser</title>
<path fill="none" stroke="#78909c" d="M87,-186.02C87,-222.72 87,-280 87,-280 87,-280 273.66,-280 273.66,-280"/>
<polygon fill="#78909c" stroke="#78909c" points="273.66,-283.5 283.66,-280 273.66,-276.5 273.66,-283.5"/>
<text text-anchor="middle" x="221" y="-259.4" font-family="Helvetica,sans-Serif" font-size="12.00">feed bytes</text>
</g>
<!-- registry -->
<g id="node4" class="node">
<title>registry</title>
<path fill="#fff3e0" stroke="#455a64" stroke-width="1.5" d="M752,-381C752,-381 591,-381 591,-381 585,-381 579,-375 579,-369 579,-369 579,-333 579,-333 579,-327 585,-321 591,-321 591,-321 752,-321 752,-321 758,-321 764,-327 764,-333 764,-333 764,-369 764,-369 764,-375 758,-381 752,-381"/>
<text text-anchor="middle" x="671.5" y="-356" font-family="Helvetica,sans-Serif" font-size="15.00">commands.py</text>
<text text-anchor="middle" x="671.5" y="-339" font-family="Helvetica,sans-Serif" font-size="15.00">registry + dispatch</text>
</g>
<!-- parser&#45;&gt;registry -->
<g id="edge3" class="edge">
<title>parser&#45;&gt;registry</title>
<path fill="none" stroke="#78909c" d="M491.27,-295.5C540.2,-295.5 588,-295.5 588,-295.5 588,-295.5 588,-310.98 588,-310.98"/>
<polygon fill="#78909c" stroke="#78909c" points="584.5,-310.98 588,-320.98 591.5,-310.98 584.5,-310.98"/>
<text text-anchor="middle" x="535" y="-330.4" font-family="Helvetica,sans-Serif" font-size="12.00">args</text>
</g>
<!-- encoder -->
<g id="node5" class="node">
<title>encoder</title>
<path fill="#e8f5e9" stroke="#455a64" stroke-width="1.5" d="M1104,-379C1104,-379 903,-379 903,-379 897,-379 891,-373 891,-367 891,-367 891,-331 891,-331 891,-325 897,-319 903,-319 903,-319 1104,-319 1104,-319 1110,-319 1116,-325 1116,-331 1116,-331 1116,-367 1116,-367 1116,-373 1110,-379 1104,-379"/>
<text text-anchor="middle" x="1003.5" y="-354" font-family="Helvetica,sans-Serif" font-size="15.00">protocol.py</text>
<text text-anchor="middle" x="1003.5" y="-337" font-family="Helvetica,sans-Serif" font-size="15.00">encoder (value &#45;&gt; RESP)</text>
</g>
<!-- registry&#45;&gt;encoder -->
<g id="edge5" class="edge">
<title>registry&#45;&gt;encoder</title>
<path fill="none" stroke="#78909c" d="M764.42,-350C764.42,-350 880.83,-350 880.83,-350"/>
<polygon fill="#78909c" stroke="#78909c" points="880.83,-353.5 890.83,-350 880.83,-346.5 880.83,-353.5"/>
<text text-anchor="middle" x="827.5" y="-354.4" font-family="Helvetica,sans-Serif" font-size="12.00">result</text>
</g>
<!-- storage -->
<g id="node6" class="node">
<title>storage</title>
<path fill="#fce4ec" stroke="#455a64" stroke-width="1.5" d="M1085.5,-268.55C1085.5,-272.66 1048.75,-276 1003.5,-276 958.25,-276 921.5,-272.66 921.5,-268.55 921.5,-268.55 921.5,-201.45 921.5,-201.45 921.5,-197.34 958.25,-194 1003.5,-194 1048.75,-194 1085.5,-197.34 1085.5,-201.45 1085.5,-201.45 1085.5,-268.55 1085.5,-268.55"/>
<path fill="none" stroke="#455a64" stroke-width="1.5" d="M1085.5,-268.55C1085.5,-264.43 1048.75,-261.09 1003.5,-261.09 958.25,-261.09 921.5,-264.43 921.5,-268.55"/>
<text text-anchor="middle" x="1003.5" y="-240" font-family="Helvetica,sans-Serif" font-size="15.00">storage.py</text>
<text text-anchor="middle" x="1003.5" y="-223" font-family="Helvetica,sans-Serif" font-size="15.00">in&#45;memory store</text>
</g>
<!-- registry&#45;&gt;storage -->
<g id="edge4" class="edge">
<title>registry&#45;&gt;storage</title>
<path fill="none" stroke="#78909c" d="M756,-320.75C756,-293.55 756,-257.83 756,-257.83 756,-257.83 911.43,-257.83 911.43,-257.83"/>
<polygon fill="#78909c" stroke="#78909c" points="911.43,-261.33 921.43,-257.83 911.43,-254.33 911.43,-261.33"/>
<text text-anchor="middle" x="827.5" y="-296.4" font-family="Helvetica,sans-Serif" font-size="12.00">get / set</text>
</g>
<!-- encoder&#45;&gt;client -->
<g id="edge6" class="edge">
<title>encoder&#45;&gt;client</title>
<path fill="none" stroke="#78909c" d="M1101,-318.83C1101,-241.11 1101,-40.17 1101,-40.17 1101,-40.17 1239.77,-40.17 1239.77,-40.17"/>
<polygon fill="#78909c" stroke="#78909c" points="1239.77,-43.67 1249.77,-40.17 1239.77,-36.67 1239.77,-43.67"/>
<text text-anchor="middle" x="1183" y="-211.4" font-family="Helvetica,sans-Serif" font-size="12.00">RESP2 reply</text>
</g>
<!-- expir -->
<g id="node7" class="node">
<title>expir</title>
<path fill="#f3e5f5" stroke="#455a64" stroke-width="1.5" d="M729.5,-281C729.5,-281 613.5,-281 613.5,-281 607.5,-281 601.5,-275 601.5,-269 601.5,-269 601.5,-233 601.5,-233 601.5,-227 607.5,-221 613.5,-221 613.5,-221 729.5,-221 729.5,-221 735.5,-221 741.5,-227 741.5,-233 741.5,-233 741.5,-269 741.5,-269 741.5,-275 735.5,-281 729.5,-281"/>
<text text-anchor="middle" x="671.5" y="-256" font-family="Helvetica,sans-Serif" font-size="15.00">expiration.py</text>
<text text-anchor="middle" x="671.5" y="-239" font-family="Helvetica,sans-Serif" font-size="15.00">lazy + active</text>
</g>
<!-- expir&#45;&gt;storage -->
<g id="edge7" class="edge">
<title>expir&#45;&gt;storage</title>
<path fill="none" stroke="#78909c" stroke-dasharray="5,2" d="M751.5,-239.42C751.5,-239.42 911.29,-239.42 911.29,-239.42"/>
<polygon fill="#78909c" stroke="#78909c" points="911.29,-242.92 921.29,-239.42 911.29,-235.92 911.29,-242.92"/>
<polygon fill="#78909c" stroke="#78909c" points="751.5,-235.92 741.5,-239.42 751.5,-242.92 751.5,-235.92"/>
<text text-anchor="middle" x="827.5" y="-238.4" font-family="Helvetica,sans-Serif" font-size="12.00">expire</text>
</g>
<!-- persist -->
<g id="node8" class="node">
<title>persist</title>
<path fill="#f3e5f5" stroke="#455a64" stroke-width="1.5" d="M734.5,-181C734.5,-181 608.5,-181 608.5,-181 602.5,-181 596.5,-175 596.5,-169 596.5,-169 596.5,-133 596.5,-133 596.5,-127 602.5,-121 608.5,-121 608.5,-121 734.5,-121 734.5,-121 740.5,-121 746.5,-127 746.5,-133 746.5,-133 746.5,-169 746.5,-169 746.5,-175 740.5,-181 734.5,-181"/>
<text text-anchor="middle" x="671.5" y="-156" font-family="Helvetica,sans-Serif" font-size="15.00">persistence.py</text>
<text text-anchor="middle" x="671.5" y="-139" font-family="Helvetica,sans-Serif" font-size="15.00">RDB snapshot</text>
</g>
<!-- persist&#45;&gt;storage -->
<g id="edge8" class="edge">
<title>persist&#45;&gt;storage</title>
<path fill="none" stroke="#78909c" stroke-dasharray="5,2" d="M756.72,-161C756.72,-161 934,-161 934,-161 934,-161 934,-185.83 934,-185.83"/>
<polygon fill="#78909c" stroke="#78909c" points="756.72,-157.5 746.72,-161 756.72,-164.5 756.72,-157.5"/>
<polygon fill="#78909c" stroke="#78909c" points="930.5,-185.83 934,-195.83 937.5,-185.83 930.5,-185.83"/>
</g>
<!-- disk -->
<g id="node9" class="node">
<title>disk</title>
<polygon fill="#eceff1" stroke="#455a64" stroke-width="1.5" points="1054.5,-104.5 946.5,-104.5 946.5,-61.5 1060.5,-61.5 1060.5,-98.5 1054.5,-104.5"/>
<polyline fill="none" stroke="#455a64" stroke-width="1.5" points="1054.5,-104.5 1054.5,-98.5 "/>
<polyline fill="none" stroke="#455a64" stroke-width="1.5" points="1060.5,-98.5 1054.5,-98.5 "/>
<text text-anchor="middle" x="1003.5" y="-79.5" font-family="Helvetica,sans-Serif" font-size="15.00">dump.rdb</text>
</g>
<!-- persist&#45;&gt;disk -->
<g id="edge9" class="edge">
<title>persist&#45;&gt;disk</title>
<path fill="none" stroke="#78909c" stroke-dasharray="5,2" d="M756.53,-141C756.53,-141 1004,-141 1004,-141 1004,-141 1004,-114.6 1004,-114.6"/>
<polygon fill="#78909c" stroke="#78909c" points="756.53,-137.5 746.53,-141 756.53,-144.5 756.53,-137.5"/>
<polygon fill="#78909c" stroke="#78909c" points="1007.5,-114.6 1004,-104.6 1000.5,-114.6 1007.5,-114.6"/>
<text text-anchor="middle" x="827.5" y="-86.4" font-family="Helvetica,sans-Serif" font-size="12.00">save / load</text>
</g>
</g>
</svg>
