<?xml version="1.0" encoding="UTF-8" standalone="no"?>
<!DOCTYPE svg PUBLIC "-//W3C//DTD SVG 1.1//EN"
 "http://www.w3.org/Graphics/SVG/1.1/DTD/svg11.dtd">
<!-- Generated by graphviz version 2.43.0 (0)
 -->
<!-- Title: architecture Pages: 1 -->
<svg width="894pt" height="593pt"
 viewBox="0.00 0.00 893.60 592.72" xmlns="http://www.w3.org/2000/svg" xmlns:xlink="http://www.w3.org/1999/xlink">
<g id="graph0" class="graph" transform="scale(1 1) rotate(0) translate(28.8 563.92)">
<title>architecture</title>
<polygon fill="#0d1117" stroke="transparent" points="-28.8,28.8 -28.8,-563.92 864.8,-563.92 864.8,28.8 -28.8,28.8"/>
<g id="clust1" class="cluster">
<title>cluster_myredis</title>
<path fill="#161b22" stroke="#30363d" d="M20,-8C20,-8 694,-8 694,-8 700,-8 706,-14 706,-20 706,-20 706,-434.12 706,-434.12 706,-440.12 700,-446.12 694,-446.12 694,-446.12 20,-446.12 20,-446.12 14,-446.12 8,-440.12 8,-434.12 8,-434.12 8,-20 8,-20 8,-14 14,-8 20,-8"/>
<text text-anchor="middle" x="52.5" y="-427.73" font-family="Helvetica,sans-Serif" font-size="18.00" fill="#adbac7">myredis</text>
</g>
<!-- client -->
<g id="node1" class="node">
<title>client</title>
<path fill="#eceff1" stroke="#455a64" stroke-width="1.5" d="M247.5,-535.12C247.5,-535.12 96.5,-535.12 96.5,-535.12 90.5,-535.12 84.5,-529.12 84.5,-523.12 84.5,-523.12 84.5,-504.12 84.5,-504.12 84.5,-498.12 90.5,-492.12 96.5,-492.12 96.5,-492.12 247.5,-492.12 247.5,-492.12 253.5,-492.12 259.5,-498.12 259.5,-504.12 259.5,-504.12 259.5,-523.12 259.5,-523.12 259.5,-529.12 253.5,-535.12 247.5,-535.12"/>
<text text-anchor="middle" x="172" y="-510.12" font-family="Helvetica,sans-Serif" font-size="15.00">redis&#45;cli / redis&#45;py</text>
</g>
<!-- server -->
<g id="node2" class="node">
<title>server</title>
<path fill="#e3f2fd" stroke="#455a64" stroke-width="1.5" d="M269.5,-410.12C269.5,-410.12 74.5,-410.12 74.5,-410.12 68.5,-410.12 62.5,-404.12 62.5,-398.12 62.5,-398.12 62.5,-379.12 62.5,-379.12 62.5,-373.12 68.5,-367.12 74.5,-367.12 74.5,-367.12 269.5,-367.12 269.5,-367.12 275.5,-367.12 281.5,-373.12 281.5,-379.12 281.5,-379.12 281.5,-398.12 281.5,-398.12 281.5,-404.12 275.5,-410.12 269.5,-410.12"/>
<text text-anchor="middle" x="172" y="-385.12" font-family="Helvetica,sans-Serif" font-size="15.00">server.py &#160;(asyncio TCP)</text>
</g>
<!-- client&#45;&gt;server -->
<g id="edge1" class="edge">
<title>client&#45;&gt;server</title>
<path fill="none" stroke="#8b949e" d="M172,-491.85C172,-491.85 172,-420.15 172,-420.15"/>
<polygon fill="#8b949e" stroke="#8b949e" points="175.5,-420.15 172,-410.15 168.5,-420.15 175.5,-420.15"/>
<text text-anchor="middle" x="208.5" y="-457.52" font-family="Helvetica,sans-Serif" font-size="12.00" fill="#adbac7">RESP2 / TCP</text>
</g>
<!-- parser -->
<g id="node3" class="node">
<title>parser</title>
<path fill="#e8f5e9" stroke="#455a64" stroke-width="1.5" d="M315,-304.12C315,-304.12 29,-304.12 29,-304.12 23,-304.12 17,-298.12 17,-292.12 17,-292.12 17,-273.12 17,-273.12 17,-267.12 23,-261.12 29,-261.12 29,-261.12 315,-261.12 315,-261.12 321,-261.12 327,-267.12 327,-273.12 327,-273.12 327,-292.12 327,-292.12 327,-298.12 321,-304.12 315,-304.12"/>
<text text-anchor="middle" x="172" y="-279.12" font-family="Helvetica,sans-Serif" font-size="15.00">protocol.py &#160;· &#160;parser (RESP &#45;&gt; args)</text>
</g>
<!-- server&#45;&gt;parser -->
<g id="edge2" class="edge">
<title>server&#45;&gt;parser</title>
<path fill="none" stroke="#8b949e" d="M172,-366.92C172,-366.92 172,-314.3 172,-314.3"/>
<polygon fill="#8b949e" stroke="#8b949e" points="175.5,-314.3 172,-304.3 168.5,-314.3 175.5,-314.3"/>
<text text-anchor="middle" x="204" y="-332.52" font-family="Helvetica,sans-Serif" font-size="12.00" fill="#adbac7">feed bytes</text>
</g>
<!-- registry -->
<g id="node4" class="node">
<title>registry</title>
<path fill="#fff3e0" stroke="#455a64" stroke-width="1.5" d="M316,-189.62C316,-189.62 28,-189.62 28,-189.62 22,-189.62 16,-183.62 16,-177.62 16,-177.62 16,-158.62 16,-158.62 16,-152.62 22,-146.62 28,-146.62 28,-146.62 316,-146.62 316,-146.62 322,-146.62 328,-152.62 328,-158.62 328,-158.62 328,-177.62 328,-177.62 328,-183.62 322,-189.62 316,-189.62"/>
<text text-anchor="middle" x="172" y="-164.62" font-family="Helvetica,sans-Serif" font-size="15.00">commands.py &#160;· &#160;registry + dispatch</text>
</g>
<!-- parser&#45;&gt;registry -->
<g id="edge3" class="edge">
<title>parser&#45;&gt;registry</title>
<path fill="none" stroke="#8b949e" d="M172,-261.09C172,-261.09 172,-199.95 172,-199.95"/>
<polygon fill="#8b949e" stroke="#8b949e" points="175.5,-199.95 172,-189.95 168.5,-199.95 175.5,-199.95"/>
<text text-anchor="middle" x="185" y="-226.53" font-family="Helvetica,sans-Serif" font-size="12.00" fill="#adbac7">args</text>
</g>
<!-- storage -->
<g id="node5" class="node">
<title>storage</title>
<path fill="#fce4ec" stroke="#455a64" stroke-width="1.5" d="M654,-69.8C654,-72.77 594.39,-75.19 521,-75.19 447.61,-75.19 388,-72.77 388,-69.8 388,-69.8 388,-21.32 388,-21.32 388,-18.35 447.61,-15.94 521,-15.94 594.39,-15.94 654,-18.35 654,-21.32 654,-21.32 654,-69.8 654,-69.8"/>
<path fill="none" stroke="#455a64" stroke-width="1.5" d="M654,-69.8C654,-66.83 594.39,-64.41 521,-64.41 447.61,-64.41 388,-66.83 388,-69.8"/>
<text text-anchor="middle" x="521" y="-42.06" font-family="Helvetica,sans-Serif" font-size="15.00">storage.py &#160;· &#160;in&#45;memory store</text>
</g>
<!-- registry&#45;&gt;storage -->
<g id="edge4" class="edge">
<title>registry&#45;&gt;storage</title>
<path fill="none" stroke="#8b949e" d="M224,-146.57C224,-117.96 224,-71 224,-71 224,-71 377.7,-71 377.7,-71"/>
<polygon fill="#8b949e" stroke="#8b949e" points="377.7,-74.5 387.7,-71 377.7,-67.5 377.7,-74.5"/>
<text text-anchor="middle" x="363.5" y="-103.53" font-family="Helvetica,sans-Serif" font-size="12.00" fill="#adbac7">get / set</text>
</g>
<!-- encoder -->
<g id="node6" class="node">
<title>encoder</title>
<path fill="#e8f5e9" stroke="#455a64" stroke-width="1.5" d="M336,-67.06C336,-67.06 28,-67.06 28,-67.06 22,-67.06 16,-61.06 16,-55.06 16,-55.06 16,-36.06 16,-36.06 16,-30.06 22,-24.06 28,-24.06 28,-24.06 336,-24.06 336,-24.06 342,-24.06 348,-30.06 348,-36.06 348,-36.06 348,-55.06 348,-55.06 348,-61.06 342,-67.06 336,-67.06"/>
<text text-anchor="middle" x="182" y="-42.06" font-family="Helvetica,sans-Serif" font-size="15.00">protocol.py &#160;· &#160;encoder (value &#45;&gt; RESP)</text>
</g>
<!-- registry&#45;&gt;encoder -->
<g id="edge5" class="edge">
<title>registry&#45;&gt;encoder</title>
<path fill="none" stroke="#8b949e" d="M120,-146.5C120,-146.5 120,-77.39 120,-77.39"/>
<polygon fill="#8b949e" stroke="#8b949e" points="123.5,-77.39 120,-67.39 116.5,-77.39 123.5,-77.39"/>
<text text-anchor="middle" x="194" y="-103.53" font-family="Helvetica,sans-Serif" font-size="12.00" fill="#adbac7">result</text>
</g>
<!-- encoder&#45;&gt;client -->
<g id="edge6" class="edge">
<title>encoder&#45;&gt;client</title>
<path fill="none" stroke="#8b949e" d="M338,-67.17C338,-159.1 338,-513 338,-513 338,-513 269.86,-513 269.86,-513"/>
<polygon fill="#8b949e" stroke="#8b949e" points="269.86,-509.5 259.86,-513 269.86,-516.5 269.86,-509.5"/>
<text text-anchor="middle" x="443" y="-279.52" font-family="Helvetica,sans-Serif" font-size="12.00" fill="#adbac7">RESP2 reply</text>
</g>
<!-- expir -->
<g id="node7" class="node">
<title>expir</title>
<path fill="#f3e5f5" stroke="#455a64" stroke-width="1.5" d="M496,-198.12C496,-198.12 380,-198.12 380,-198.12 374,-198.12 368,-192.12 368,-186.12 368,-186.12 368,-150.12 368,-150.12 368,-144.12 374,-138.12 380,-138.12 380,-138.12 496,-138.12 496,-138.12 502,-138.12 508,-144.12 508,-150.12 508,-150.12 508,-186.12 508,-186.12 508,-192.12 502,-198.12 496,-198.12"/>
<text text-anchor="middle" x="438" y="-173.12" font-family="Helvetica,sans-Serif" font-size="15.00">expiration.py</text>
<text text-anchor="middle" x="438" y="-156.12" font-family="Helvetica,sans-Serif" font-size="15.00">lazy + active</text>
</g>
<!-- expir&#45;&gt;storage -->
<g id="edge7" class="edge">
<title>expir&#45;&gt;storage</title>
<path fill="none" stroke="#8b949e" stroke-dasharray="5,2" d="M448,-127.83C448,-127.83 448,-85.51 448,-85.51"/>
<polygon fill="#8b949e" stroke="#8b949e" points="451.5,-85.51 448,-75.51 444.5,-85.51 451.5,-85.51"/>
<polygon fill="#8b949e" stroke="#8b949e" points="444.5,-127.83 448,-137.83 451.5,-127.83 444.5,-127.83"/>
<text text-anchor="middle" x="497.5" y="-103.53" font-family="Helvetica,sans-Serif" font-size="12.00" fill="#adbac7">expire</text>
</g>
<!-- persist -->
<g id="node8" class="node">
<title>persist</title>
<path fill="#f3e5f5" stroke="#455a64" stroke-width="1.5" d="M686,-198.12C686,-198.12 560,-198.12 560,-198.12 554,-198.12 548,-192.12 548,-186.12 548,-186.12 548,-150.12 548,-150.12 548,-144.12 554,-138.12 560,-138.12 560,-138.12 686,-138.12 686,-138.12 692,-138.12 698,-144.12 698,-150.12 698,-150.12 698,-186.12 698,-186.12 698,-192.12 692,-198.12 686,-198.12"/>
<text text-anchor="middle" x="623" y="-173.12" font-family="Helvetica,sans-Serif" font-size="15.00">persistence.py</text>
<text text-anchor="middle" x="623" y="-156.12" font-family="Helvetica,sans-Serif" font-size="15.00">RDB snapshot</text>
</g>
<!-- persist&#45;&gt;storage -->
<g id="edge8" class="edge">
<title>persist&#45;&gt;storage</title>
<path fill="none" stroke="#8b949e" stroke-dasharray="5,2" d="M601,-127.83C601,-127.83 601,-85.09 601,-85.09"/>
<polygon fill="#8b949e" stroke="#8b949e" points="604.5,-85.09 601,-75.09 597.5,-85.09 604.5,-85.09"/>
<polygon fill="#8b949e" stroke="#8b949e" points="597.5,-127.83 601,-137.83 604.5,-127.83 597.5,-127.83"/>
</g>
<!-- disk -->
<g id="node9" class="node">
<title>disk</title>
<polygon fill="#eceff1" stroke="#455a64" stroke-width="1.5" points="822,-67.06 714,-67.06 714,-24.06 828,-24.06 828,-61.06 822,-67.06"/>
<polyline fill="none" stroke="#455a64" stroke-width="1.5" points="822,-67.06 822,-61.06 "/>
<polyline fill="none" stroke="#455a64" stroke-width="1.5" points="828,-61.06 822,-61.06 "/>
<text text-anchor="middle" x="771" y="-42.06" font-family="Helvetica,sans-Serif" font-size="15.00">dump.rdb</text>
</g>
<!-- persist&#45;&gt;disk -->
<g id="edge9" class="edge">
<title>persist&#45;&gt;disk</title>
<path fill="none" stroke="#8b949e" stroke-dasharray="5,2" d="M676,-128.01C676,-128.01 676,-45 676,-45 676,-45 703.82,-45 703.82,-45"/>
<polygon fill="#8b949e" stroke="#8b949e" points="672.5,-128.01 676,-138.01 679.5,-128.01 672.5,-128.01"/>
<polygon fill="#8b949e" stroke="#8b949e" points="703.82,-48.5 713.82,-45 703.82,-41.5 703.82,-48.5"/>
<text text-anchor="middle" x="803.5" y="-103.53" font-family="Helvetica,sans-Serif" font-size="12.00" fill="#adbac7">save / load</text>
</g>
</g>
</svg>
