<?xml version="1.0" encoding="UTF-8" standalone="no"?>
<!DOCTYPE svg PUBLIC "-//W3C//DTD SVG 1.1//EN"
 "http://www.w3.org/Graphics/SVG/1.1/DTD/svg11.dtd">
<!-- Generated by graphviz version 2.43.0 (0)
 -->
<!-- Title: lifecycle Pages: 1 -->
<svg width="1054pt" height="79pt"
 viewBox="0.00 0.00 1054.20 79.20" xmlns="http://www.w3.org/2000/svg" xmlns:xlink="http://www.w3.org/1999/xlink">
<g id="graph0" class="graph" transform="scale(1 1) rotate(0) translate(21.6 57.6)">
<title>lifecycle</title>
<polygon fill="white" stroke="transparent" points="-21.6,21.6 -21.6,-57.6 1032.6,-57.6 1032.6,21.6 -21.6,21.6"/>
<!-- c1 -->
<g id="node1" class="node">
<title>c1</title>
<path fill="#eceff1" stroke="#455a64" stroke-width="1.2" d="M127,-36C127,-36 12,-36 12,-36 6,-36 0,-30 0,-24 0,-24 0,-12 0,-12 0,-6 6,0 12,0 12,0 127,0 127,0 133,0 139,-6 139,-12 139,-12 139,-24 139,-24 139,-30 133,-36 127,-36"/>
<text text-anchor="middle" x="69.5" y="-21" font-family="Helvetica,sans-Serif" font-size="10.00">1. Client sends</text>
<text text-anchor="middle" x="69.5" y="-10" font-family="Helvetica,sans-Serif" font-size="10.00">*3 $3 SET $3 foo $3 bar</text>
</g>
<!-- c2 -->
<g id="node2" class="node">
<title>c2</title>
<path fill="#e3f2fd" stroke="#455a64" stroke-width="1.2" d="M314,-36C314,-36 187,-36 187,-36 181,-36 175,-30 175,-24 175,-24 175,-12 175,-12 175,-6 181,0 187,0 187,0 314,0 314,0 320,0 326,-6 326,-12 326,-12 326,-24 326,-24 326,-30 320,-36 314,-36"/>
<text text-anchor="middle" x="250.5" y="-21" font-family="Helvetica,sans-Serif" font-size="10.00">2. server.py</text>
<text text-anchor="middle" x="250.5" y="-10" font-family="Helvetica,sans-Serif" font-size="10.00">reads bytes off the socket</text>
</g>
<!-- c1&#45;&gt;c2 -->
<g id="edge1" class="edge">
<title>c1&#45;&gt;c2</title>
<path fill="none" stroke="#78909c" d="M139.19,-18C148.19,-18 157.49,-18 166.69,-18"/>
<polygon fill="#78909c" stroke="#78909c" points="166.74,-20.8 174.74,-18 166.74,-15.2 166.74,-20.8"/>
</g>
<!-- c3 -->
<g id="node3" class="node">
<title>c3</title>
<path fill="#e8f5e9" stroke="#455a64" stroke-width="1.2" d="M444,-36C444,-36 374,-36 374,-36 368,-36 362,-30 362,-24 362,-24 362,-12 362,-12 362,-6 368,0 374,0 374,0 444,0 444,0 450,0 456,-6 456,-12 456,-12 456,-24 456,-24 456,-30 450,-36 444,-36"/>
<text text-anchor="middle" x="409" y="-21" font-family="Helvetica,sans-Serif" font-size="10.00">3. parser</text>
<text text-anchor="middle" x="409" y="-10" font-family="Helvetica,sans-Serif" font-size="10.00">[SET, foo, bar]</text>
</g>
<!-- c2&#45;&gt;c3 -->
<g id="edge2" class="edge">
<title>c2&#45;&gt;c3</title>
<path fill="none" stroke="#78909c" d="M326.08,-18C335.37,-18 344.72,-18 353.61,-18"/>
<polygon fill="#78909c" stroke="#78909c" points="353.64,-20.8 361.64,-18 353.64,-15.2 353.64,-20.8"/>
</g>
<!-- c4 -->
<g id="node4" class="node">
<title>c4</title>
<path fill="#fff3e0" stroke="#455a64" stroke-width="1.2" d="M567,-36C567,-36 504,-36 504,-36 498,-36 492,-30 492,-24 492,-24 492,-12 492,-12 492,-6 498,0 504,0 504,0 567,0 567,0 573,0 579,-6 579,-12 579,-12 579,-24 579,-24 579,-30 573,-36 567,-36"/>
<text text-anchor="middle" x="535.5" y="-21" font-family="Helvetica,sans-Serif" font-size="10.00">4. registry</text>
<text text-anchor="middle" x="535.5" y="-10" font-family="Helvetica,sans-Serif" font-size="10.00">dispatch SET</text>
</g>
<!-- c3&#45;&gt;c4 -->
<g id="edge3" class="edge">
<title>c3&#45;&gt;c4</title>
<path fill="none" stroke="#78909c" d="M456.01,-18C465.11,-18 474.72,-18 483.97,-18"/>
<polygon fill="#78909c" stroke="#78909c" points="483.98,-20.8 491.98,-18 483.98,-15.2 483.98,-20.8"/>
</g>
<!-- c5 -->
<g id="node5" class="node">
<title>c5</title>
<path fill="#fff3e0" stroke="#455a64" stroke-width="1.2" d="M727,-36C727,-36 627,-36 627,-36 621,-36 615,-30 615,-24 615,-24 615,-12 615,-12 615,-6 621,0 627,0 627,0 727,0 727,0 733,0 739,-6 739,-12 739,-12 739,-24 739,-24 739,-30 733,-36 727,-36"/>
<text text-anchor="middle" x="677" y="-21" font-family="Helvetica,sans-Serif" font-size="10.00">5. cmd_set</text>
<text text-anchor="middle" x="677" y="-10" font-family="Helvetica,sans-Serif" font-size="10.00">storage.set(foo, bar)</text>
</g>
<!-- c4&#45;&gt;c5 -->
<g id="edge4" class="edge">
<title>c4&#45;&gt;c5</title>
<path fill="none" stroke="#78909c" d="M579.11,-18C587.85,-18 597.26,-18 606.66,-18"/>
<polygon fill="#78909c" stroke="#78909c" points="606.91,-20.8 614.91,-18 606.91,-15.2 606.91,-20.8"/>
</g>
<!-- c6 -->
<g id="node6" class="node">
<title>c6</title>
<path fill="#e8f5e9" stroke="#455a64" stroke-width="1.2" d="M854,-36C854,-36 787,-36 787,-36 781,-36 775,-30 775,-24 775,-24 775,-12 775,-12 775,-6 781,0 787,0 787,0 854,0 854,0 860,0 866,-6 866,-12 866,-12 866,-24 866,-24 866,-30 860,-36 854,-36"/>
<text text-anchor="middle" x="820.5" y="-21" font-family="Helvetica,sans-Serif" font-size="10.00">6. encoder</text>
<text text-anchor="middle" x="820.5" y="-10" font-family="Helvetica,sans-Serif" font-size="10.00">&quot;OK&quot; &#160;→ &#160;+OK</text>
</g>
<!-- c5&#45;&gt;c6 -->
<g id="edge5" class="edge">
<title>c5&#45;&gt;c6</title>
<path fill="none" stroke="#78909c" d="M739.24,-18C748.39,-18 757.76,-18 766.71,-18"/>
<polygon fill="#78909c" stroke="#78909c" points="766.8,-20.8 774.8,-18 766.8,-15.2 766.8,-20.8"/>
</g>
<!-- c7 -->
<g id="node7" class="node">
<title>c7</title>
<path fill="#eceff1" stroke="#455a64" stroke-width="1.2" d="M999,-36C999,-36 914,-36 914,-36 908,-36 902,-30 902,-24 902,-24 902,-12 902,-12 902,-6 908,0 914,0 914,0 999,0 999,0 1005,0 1011,-6 1011,-12 1011,-12 1011,-24 1011,-24 1011,-30 1005,-36 999,-36"/>
<text text-anchor="middle" x="956.5" y="-21" font-family="Helvetica,sans-Serif" font-size="10.00">7. Client receives</text>
<text text-anchor="middle" x="956.5" y="-10" font-family="Helvetica,sans-Serif" font-size="10.00">+OK</text>
</g>
<!-- c6&#45;&gt;c7 -->
<g id="edge6" class="edge">
<title>c6&#45;&gt;c7</title>
<path fill="none" stroke="#78909c" d="M866.12,-18C874.95,-18 884.37,-18 893.66,-18"/>
<polygon fill="#78909c" stroke="#78909c" points="893.77,-20.8 901.77,-18 893.77,-15.2 893.77,-20.8"/>
</g>
</g>
</svg>
