<?xml version="1.0" encoding="UTF-8" standalone="no"?>
<!DOCTYPE svg PUBLIC "-//W3C//DTD SVG 1.1//EN"
 "http://www.w3.org/Graphics/SVG/1.1/DTD/svg11.dtd">
<!-- Generated by graphviz version 2.43.0 (0)
 -->
<!-- Title: lifecycle Pages: 1 -->
<svg width="406pt" height="599pt"
 viewBox="0.00 0.00 405.60 598.60" xmlns="http://www.w3.org/2000/svg" xmlns:xlink="http://www.w3.org/1999/xlink">
<g id="graph0" class="graph" transform="scale(1 1) rotate(0) translate(28.8 569.8)">
<title>lifecycle</title>
<polygon fill="white" stroke="transparent" points="-28.8,28.8 -28.8,-569.8 376.8,-569.8 376.8,28.8 -28.8,28.8"/>
<!-- c1 -->
<g id="node1" class="node">
<title>c1</title>
<path fill="#eceff1" stroke="#455a64" stroke-width="1.5" d="M336,-541C336,-541 12,-541 12,-541 6,-541 0,-535 0,-529 0,-529 0,-510 0,-510 0,-504 6,-498 12,-498 12,-498 336,-498 336,-498 342,-498 348,-504 348,-510 348,-510 348,-529 348,-529 348,-535 342,-541 336,-541"/>
<text text-anchor="middle" x="174" y="-516" font-family="Helvetica,sans-Serif" font-size="15.00">1. Client sends &#160;&#160;*3 $3 SET $3 foo $3 bar</text>
</g>
<!-- c2 -->
<g id="node2" class="node">
<title>c2</title>
<path fill="#e3f2fd" stroke="#455a64" stroke-width="1.5" d="M326.5,-458C326.5,-458 21.5,-458 21.5,-458 15.5,-458 9.5,-452 9.5,-446 9.5,-446 9.5,-427 9.5,-427 9.5,-421 15.5,-415 21.5,-415 21.5,-415 326.5,-415 326.5,-415 332.5,-415 338.5,-421 338.5,-427 338.5,-427 338.5,-446 338.5,-446 338.5,-452 332.5,-458 326.5,-458"/>
<text text-anchor="middle" x="174" y="-433" font-family="Helvetica,sans-Serif" font-size="15.00">2. server.py reads bytes off the socket</text>
</g>
<!-- c1&#45;&gt;c2 -->
<g id="edge1" class="edge">
<title>c1&#45;&gt;c2</title>
<path fill="none" stroke="#78909c" d="M174,-497.69C174,-497.69 174,-467.16 174,-467.16"/>
<polygon fill="#78909c" stroke="#78909c" points="177.15,-467.16 174,-458.16 170.85,-467.16 177.15,-467.16"/>
</g>
<!-- c3 -->
<g id="node3" class="node">
<title>c3</title>
<path fill="#e8f5e9" stroke="#455a64" stroke-width="1.5" d="M288.5,-375C288.5,-375 59.5,-375 59.5,-375 53.5,-375 47.5,-369 47.5,-363 47.5,-363 47.5,-344 47.5,-344 47.5,-338 53.5,-332 59.5,-332 59.5,-332 288.5,-332 288.5,-332 294.5,-332 300.5,-338 300.5,-344 300.5,-344 300.5,-363 300.5,-363 300.5,-369 294.5,-375 288.5,-375"/>
<text text-anchor="middle" x="174" y="-350" font-family="Helvetica,sans-Serif" font-size="15.00">3. parser &#160;&#45;&gt; &#160;[SET, foo, bar]</text>
</g>
<!-- c2&#45;&gt;c3 -->
<g id="edge2" class="edge">
<title>c2&#45;&gt;c3</title>
<path fill="none" stroke="#78909c" d="M174,-414.69C174,-414.69 174,-384.16 174,-384.16"/>
<polygon fill="#78909c" stroke="#78909c" points="177.15,-384.16 174,-375.16 170.85,-384.16 177.15,-384.16"/>
</g>
<!-- c4 -->
<g id="node4" class="node">
<title>c4</title>
<path fill="#fff3e0" stroke="#455a64" stroke-width="1.5" d="M282,-292C282,-292 66,-292 66,-292 60,-292 54,-286 54,-280 54,-280 54,-261 54,-261 54,-255 60,-249 66,-249 66,-249 282,-249 282,-249 288,-249 294,-255 294,-261 294,-261 294,-280 294,-280 294,-286 288,-292 282,-292"/>
<text text-anchor="middle" x="174" y="-267" font-family="Helvetica,sans-Serif" font-size="15.00">4. registry dispatches SET</text>
</g>
<!-- c3&#45;&gt;c4 -->
<g id="edge3" class="edge">
<title>c3&#45;&gt;c4</title>
<path fill="none" stroke="#78909c" d="M174,-331.69C174,-331.69 174,-301.16 174,-301.16"/>
<polygon fill="#78909c" stroke="#78909c" points="177.15,-301.16 174,-292.16 170.85,-301.16 177.15,-301.16"/>
</g>
<!-- c5 -->
<g id="node5" class="node">
<title>c5</title>
<path fill="#fff3e0" stroke="#455a64" stroke-width="1.5" d="M319,-209C319,-209 29,-209 29,-209 23,-209 17,-203 17,-197 17,-197 17,-178 17,-178 17,-172 23,-166 29,-166 29,-166 319,-166 319,-166 325,-166 331,-172 331,-178 331,-178 331,-197 331,-197 331,-203 325,-209 319,-209"/>
<text text-anchor="middle" x="174" y="-184" font-family="Helvetica,sans-Serif" font-size="15.00">5. cmd_set &#160;&#45;&gt; &#160;storage.set(foo, bar)</text>
</g>
<!-- c4&#45;&gt;c5 -->
<g id="edge4" class="edge">
<title>c4&#45;&gt;c5</title>
<path fill="none" stroke="#78909c" d="M174,-248.69C174,-248.69 174,-218.16 174,-218.16"/>
<polygon fill="#78909c" stroke="#78909c" points="177.15,-218.16 174,-209.16 170.85,-218.16 177.15,-218.16"/>
</g>
<!-- c6 -->
<g id="node6" class="node">
<title>c6</title>
<path fill="#e8f5e9" stroke="#455a64" stroke-width="1.5" d="M283.5,-126C283.5,-126 64.5,-126 64.5,-126 58.5,-126 52.5,-120 52.5,-114 52.5,-114 52.5,-95 52.5,-95 52.5,-89 58.5,-83 64.5,-83 64.5,-83 283.5,-83 283.5,-83 289.5,-83 295.5,-89 295.5,-95 295.5,-95 295.5,-114 295.5,-114 295.5,-120 289.5,-126 283.5,-126"/>
<text text-anchor="middle" x="174" y="-101" font-family="Helvetica,sans-Serif" font-size="15.00">6. encoder &#160;&#160;&quot;OK&quot; &#160;&#45;&gt; &#160;+OK</text>
</g>
<!-- c5&#45;&gt;c6 -->
<g id="edge5" class="edge">
<title>c5&#45;&gt;c6</title>
<path fill="none" stroke="#78909c" d="M174,-165.69C174,-165.69 174,-135.16 174,-135.16"/>
<polygon fill="#78909c" stroke="#78909c" points="177.15,-135.16 174,-126.16 170.85,-135.16 177.15,-135.16"/>
</g>
<!-- c7 -->
<g id="node7" class="node">
<title>c7</title>
<path fill="#eceff1" stroke="#455a64" stroke-width="1.5" d="M273,-43C273,-43 75,-43 75,-43 69,-43 63,-37 63,-31 63,-31 63,-12 63,-12 63,-6 69,0 75,0 75,0 273,0 273,0 279,0 285,-6 285,-12 285,-12 285,-31 285,-31 285,-37 279,-43 273,-43"/>
<text text-anchor="middle" x="174" y="-18" font-family="Helvetica,sans-Serif" font-size="15.00">7. Client receives &#160;&#160;+OK</text>
</g>
<!-- c6&#45;&gt;c7 -->
<g id="edge6" class="edge">
<title>c6&#45;&gt;c7</title>
<path fill="none" stroke="#78909c" d="M174,-82.69C174,-82.69 174,-52.16 174,-52.16"/>
<polygon fill="#78909c" stroke="#78909c" points="177.15,-52.16 174,-43.16 170.85,-52.16 177.15,-52.16"/>
</g>
</g>
</svg>
