<?xml version="1.0" encoding="UTF-8" standalone="no"?>
<!DOCTYPE svg PUBLIC "-//W3C//DTD SVG 1.1//EN"
 "http://www.w3.org/Graphics/SVG/1.1/DTD/svg11.dtd">
<!-- Generated by graphviz version 2.43.0 (0)
 -->
<!-- Title: expiration Pages: 1 -->
<svg width="504pt" height="424pt"
 viewBox="0.00 0.00 504.20 424.20" xmlns="http://www.w3.org/2000/svg" xmlns:xlink="http://www.w3.org/1999/xlink">
<g id="graph0" class="graph" transform="scale(1 1) rotate(0) translate(21.6 402.6)">
<title>expiration</title>
<polygon fill="white" stroke="transparent" points="-21.6,21.6 -21.6,-402.6 482.6,-402.6 482.6,21.6 -21.6,21.6"/>
<g id="clust1" class="cluster">
<title>cluster_lazy</title>
<path fill="#fbfbfb" stroke="#b0bec5" d="M20,-26C20,-26 184,-26 184,-26 190,-26 196,-32 196,-38 196,-38 196,-260 196,-260 196,-266 190,-272 184,-272 184,-272 20,-272 20,-272 14,-272 8,-266 8,-260 8,-260 8,-38 8,-38 8,-32 14,-26 20,-26"/>
<text text-anchor="middle" x="69" y="-258.4" font-family="Helvetica,sans-Serif" font-size="12.00">Lazy — on access</text>
</g>
<g id="clust2" class="cluster">
<title>cluster_active</title>
<path fill="#fbfbfb" stroke="#b0bec5" d="M216,-8C216,-8 441,-8 441,-8 447,-8 453,-14 453,-20 453,-20 453,-361 453,-361 453,-367 447,-373 441,-373 441,-373 216,-373 216,-373 210,-373 204,-367 204,-361 204,-361 204,-20 204,-20 204,-14 210,-8 216,-8"/>
<text text-anchor="middle" x="328.5" y="-359.4" font-family="Helvetica,sans-Serif" font-size="12.00">Active — background sweep (every 1s)</text>
</g>
<!-- key -->
<g id="node1" class="node">
<title>key</title>
<path fill="#fce4ec" stroke="#455a64" stroke-width="1.2" d="M193.5,-340.73C193.5,-342.53 172.21,-344 146,-344 119.79,-344 98.5,-342.53 98.5,-340.73 98.5,-340.73 98.5,-311.27 98.5,-311.27 98.5,-309.47 119.79,-308 146,-308 172.21,-308 193.5,-309.47 193.5,-311.27 193.5,-311.27 193.5,-340.73 193.5,-340.73"/>
<path fill="none" stroke="#455a64" stroke-width="1.2" d="M193.5,-340.73C193.5,-338.92 172.21,-337.45 146,-337.45 119.79,-337.45 98.5,-338.92 98.5,-340.73"/>
<text text-anchor="middle" x="146" y="-323.5" font-family="Helvetica,sans-Serif" font-size="10.00">key with a TTL</text>
</g>
<!-- access -->
<g id="node2" class="node">
<title>access</title>
<path fill="#e3f2fd" stroke="#455a64" stroke-width="1.2" d="M167.5,-243C167.5,-243 102.5,-243 102.5,-243 96.5,-243 90.5,-237 90.5,-231 90.5,-231 90.5,-219 90.5,-219 90.5,-213 96.5,-207 102.5,-207 102.5,-207 167.5,-207 167.5,-207 173.5,-207 179.5,-213 179.5,-219 179.5,-219 179.5,-231 179.5,-231 179.5,-237 173.5,-243 167.5,-243"/>
<text text-anchor="middle" x="135" y="-222.5" font-family="Helvetica,sans-Serif" font-size="10.00">GET / TTL / …</text>
</g>
<!-- key&#45;&gt;access -->
<g id="edge8" class="edge">
<title>key&#45;&gt;access</title>
<path fill="none" stroke="#78909c" stroke-dasharray="5,2" d="M144.08,-307.76C142.41,-292.71 139.96,-270.62 138.02,-253.19"/>
<polygon fill="#78909c" stroke="#78909c" points="141.48,-252.6 136.89,-243.05 134.52,-253.37 141.48,-252.6"/>
<text text-anchor="middle" x="160" y="-282.8" font-family="Helvetica,sans-Serif" font-size="9.00">touched</text>
</g>
<!-- sample -->
<g id="node7" class="node">
<title>sample</title>
<path fill="#fff3e0" stroke="#455a64" stroke-width="1.2" d="M301.5,-243C301.5,-243 224.5,-243 224.5,-243 218.5,-243 212.5,-237 212.5,-231 212.5,-231 212.5,-219 212.5,-219 212.5,-213 218.5,-207 224.5,-207 224.5,-207 301.5,-207 301.5,-207 307.5,-207 313.5,-213 313.5,-219 313.5,-219 313.5,-231 313.5,-231 313.5,-237 307.5,-243 301.5,-243"/>
<text text-anchor="middle" x="263" y="-228" font-family="Helvetica,sans-Serif" font-size="10.00">sample 20 keys</text>
<text text-anchor="middle" x="263" y="-217" font-family="Helvetica,sans-Serif" font-size="10.00">that have a TTL</text>
</g>
<!-- key&#45;&gt;sample -->
<g id="edge9" class="edge">
<title>key&#45;&gt;sample</title>
<path fill="none" stroke="#78909c" stroke-dasharray="5,2" d="M166.11,-307.98C185.12,-291.9 213.79,-267.64 235.02,-249.67"/>
<polygon fill="#78909c" stroke="#78909c" points="237.38,-252.26 242.76,-243.13 232.86,-246.92 237.38,-252.26"/>
<text text-anchor="middle" x="216.5" y="-282.8" font-family="Helvetica,sans-Serif" font-size="9.00">sampled</text>
</g>
<!-- lcheck -->
<g id="node3" class="node">
<title>lcheck</title>
<path fill="#fff3e0" stroke="#455a64" stroke-width="1.2" d="M110.43,-166.83C110.43,-166.83 67.89,-155.17 67.89,-155.17 62.1,-153.59 62.1,-150.41 67.89,-148.83 67.89,-148.83 110.43,-137.17 110.43,-137.17 116.21,-135.59 127.79,-135.59 133.57,-137.17 133.57,-137.17 176.11,-148.83 176.11,-148.83 181.9,-150.41 181.9,-153.59 176.11,-155.17 176.11,-155.17 133.57,-166.83 133.57,-166.83 127.79,-168.41 116.21,-168.41 110.43,-166.83"/>
<text text-anchor="middle" x="122" y="-149.5" font-family="Helvetica,sans-Serif" font-size="10.00">expired?</text>
</g>
<!-- access&#45;&gt;lcheck -->
<g id="edge1" class="edge">
<title>access&#45;&gt;lcheck</title>
<path fill="none" stroke="#78909c" d="M131.85,-206.81C130.35,-198.58 128.51,-188.54 126.83,-179.38"/>
<polygon fill="#78909c" stroke="#78909c" points="130.27,-178.75 125.03,-169.54 123.39,-180.01 130.27,-178.75"/>
</g>
<!-- ldel -->
<g id="node4" class="node">
<title>ldel</title>
<path fill="#ffebee" stroke="#455a64" stroke-width="1.2" d="M73.5,-70C73.5,-70 28.5,-70 28.5,-70 22.5,-70 16.5,-64 16.5,-58 16.5,-58 16.5,-46 16.5,-46 16.5,-40 22.5,-34 28.5,-34 28.5,-34 73.5,-34 73.5,-34 79.5,-34 85.5,-40 85.5,-46 85.5,-46 85.5,-58 85.5,-58 85.5,-64 79.5,-70 73.5,-70"/>
<text text-anchor="middle" x="51" y="-55" font-family="Helvetica,sans-Serif" font-size="10.00">delete</text>
<text text-anchor="middle" x="51" y="-44" font-family="Helvetica,sans-Serif" font-size="10.00">return nil</text>
</g>
<!-- lcheck&#45;&gt;ldel -->
<g id="edge2" class="edge">
<title>lcheck&#45;&gt;ldel</title>
<path fill="none" stroke="#78909c" d="M111.52,-136.54C100.47,-121.28 82.82,-96.93 69.43,-78.44"/>
<polygon fill="#78909c" stroke="#78909c" points="72.13,-76.21 63.43,-70.16 66.47,-80.31 72.13,-76.21"/>
<text text-anchor="middle" x="103" y="-108.8" font-family="Helvetica,sans-Serif" font-size="9.00">yes</text>
</g>
<!-- lret -->
<g id="node5" class="node">
<title>lret</title>
<path fill="#e8f5e9" stroke="#455a64" stroke-width="1.2" d="M176,-70C176,-70 116,-70 116,-70 110,-70 104,-64 104,-58 104,-58 104,-46 104,-46 104,-40 110,-34 116,-34 116,-34 176,-34 176,-34 182,-34 188,-40 188,-46 188,-46 188,-58 188,-58 188,-64 182,-70 176,-70"/>
<text text-anchor="middle" x="146" y="-49.5" font-family="Helvetica,sans-Serif" font-size="10.00">return value</text>
</g>
<!-- lcheck&#45;&gt;lret -->
<g id="edge3" class="edge">
<title>lcheck&#45;&gt;lret</title>
<path fill="none" stroke="#78909c" d="M125.96,-134.82C129.58,-120.05 135,-97.92 139.29,-80.4"/>
<polygon fill="#78909c" stroke="#78909c" points="142.81,-80.74 141.79,-70.2 136.01,-79.08 142.81,-80.74"/>
<text text-anchor="middle" x="138" y="-108.8" font-family="Helvetica,sans-Serif" font-size="9.00">no</text>
</g>
<!-- tick -->
<g id="node6" class="node">
<title>tick</title>
<path fill="#e3f2fd" stroke="#455a64" stroke-width="1.2" d="M287,-344C287,-344 239,-344 239,-344 233,-344 227,-338 227,-332 227,-332 227,-320 227,-320 227,-314 233,-308 239,-308 239,-308 287,-308 287,-308 293,-308 299,-314 299,-320 299,-320 299,-332 299,-332 299,-338 293,-344 287,-344"/>
<text text-anchor="middle" x="263" y="-323.5" font-family="Helvetica,sans-Serif" font-size="10.00">timer tick</text>
</g>
<!-- tick&#45;&gt;sample -->
<g id="edge4" class="edge">
<title>tick&#45;&gt;sample</title>
<path fill="none" stroke="#78909c" d="M263,-307.76C263,-292.71 263,-270.62 263,-253.19"/>
<polygon fill="#78909c" stroke="#78909c" points="266.5,-253.05 263,-243.05 259.5,-253.05 266.5,-253.05"/>
</g>
<!-- adel -->
<g id="node8" class="node">
<title>adel</title>
<path fill="#ffebee" stroke="#455a64" stroke-width="1.2" d="M291,-170C291,-170 227,-170 227,-170 221,-170 215,-164 215,-158 215,-158 215,-146 215,-146 215,-140 221,-134 227,-134 227,-134 291,-134 291,-134 297,-134 303,-140 303,-146 303,-146 303,-158 303,-158 303,-164 297,-170 291,-170"/>
<text text-anchor="middle" x="259" y="-155" font-family="Helvetica,sans-Serif" font-size="10.00">delete the</text>
<text text-anchor="middle" x="259" y="-144" font-family="Helvetica,sans-Serif" font-size="10.00">expired ones</text>
</g>
<!-- sample&#45;&gt;adel -->
<g id="edge5" class="edge">
<title>sample&#45;&gt;adel</title>
<path fill="none" stroke="#78909c" d="M262.03,-206.81C261.58,-198.79 261.03,-189.05 260.53,-180.07"/>
<polygon fill="#78909c" stroke="#78909c" points="264.02,-179.82 259.96,-170.03 257.03,-180.21 264.02,-179.82"/>
</g>
<!-- again -->
<g id="node9" class="node">
<title>again</title>
<path fill="#fff3e0" stroke="#455a64" stroke-width="1.2" d="M298.43,-82.32C298.43,-82.32 252.57,-57.68 252.57,-57.68 247.29,-54.84 247.29,-49.16 252.57,-46.32 252.57,-46.32 298.43,-21.68 298.43,-21.68 303.71,-18.84 314.29,-18.84 319.57,-21.68 319.57,-21.68 365.43,-46.32 365.43,-46.32 370.71,-49.16 370.71,-54.84 365.43,-57.68 365.43,-57.68 319.57,-82.32 319.57,-82.32 314.29,-85.16 303.71,-85.16 298.43,-82.32"/>
<text text-anchor="middle" x="309" y="-55" font-family="Helvetica,sans-Serif" font-size="10.00">&gt; 25%</text>
<text text-anchor="middle" x="309" y="-44" font-family="Helvetica,sans-Serif" font-size="10.00">expired?</text>
</g>
<!-- adel&#45;&gt;again -->
<g id="edge6" class="edge">
<title>adel&#45;&gt;again</title>
<path fill="none" stroke="#78909c" d="M267.71,-133.93C273.92,-121.76 282.5,-104.93 290.24,-89.77"/>
<polygon fill="#78909c" stroke="#78909c" points="293.49,-91.11 294.91,-80.61 287.25,-87.93 293.49,-91.11"/>
</g>
<!-- again&#45;&gt;sample -->
<g id="edge7" class="edge">
<title>again&#45;&gt;sample</title>
<path fill="none" stroke="#78909c" d="M316.19,-84.41C320.24,-108.63 322.61,-142.51 312,-170 307.7,-181.14 299.91,-191.41 291.79,-199.93"/>
<polygon fill="#78909c" stroke="#78909c" points="289.33,-197.44 284.65,-206.95 294.24,-202.43 289.33,-197.44"/>
<text text-anchor="middle" x="344.5" y="-149.8" font-family="Helvetica,sans-Serif" font-size="9.00">yes, repeat</text>
</g>
</g>
</svg>
