<?xml version="1.0" encoding="UTF-8" standalone="no"?>
<!DOCTYPE svg PUBLIC "-//W3C//DTD SVG 1.1//EN"
 "http://www.w3.org/Graphics/SVG/1.1/DTD/svg11.dtd">
<!-- Generated by graphviz version 2.43.0 (0)
 -->
<!-- Title: expiration Pages: 1 -->
<svg width="703pt" height="573pt"
 viewBox="0.00 0.00 702.60 573.41" xmlns="http://www.w3.org/2000/svg" xmlns:xlink="http://www.w3.org/1999/xlink">
<g id="graph0" class="graph" transform="scale(1 1) rotate(0) translate(28.8 544.61)">
<title>expiration</title>
<polygon fill="white" stroke="transparent" points="-28.8,28.8 -28.8,-544.61 673.8,-544.61 673.8,28.8 -28.8,28.8"/>
<g id="clust1" class="cluster">
<title>cluster_lazy</title>
<path fill="#fbfbfb" stroke="#b0bec5" d="M20,-35C20,-35 274,-35 274,-35 280,-35 286,-41 286,-47 286,-47 286,-372.5 286,-372.5 286,-378.5 280,-384.5 274,-384.5 274,-384.5 20,-384.5 20,-384.5 14,-384.5 8,-378.5 8,-372.5 8,-372.5 8,-47 8,-47 8,-41 14,-35 20,-35"/>
<text text-anchor="middle" x="93" y="-367.7" font-family="Helvetica,sans-Serif" font-size="16.00">Lazy &#160;— &#160;on access</text>
</g>
<g id="clust2" class="cluster">
<title>cluster_active</title>
<path fill="#fbfbfb" stroke="#b0bec5" d="M307,-8C307,-8 625,-8 625,-8 631,-8 637,-14 637,-20 637,-20 637,-495.81 637,-495.81 637,-501.81 631,-507.81 625,-507.81 625,-507.81 307,-507.81 307,-507.81 301,-507.81 295,-501.81 295,-495.81 295,-495.81 295,-20 295,-20 295,-14 301,-8 307,-8"/>
<text text-anchor="middle" x="466" y="-491.01" font-family="Helvetica,sans-Serif" font-size="16.00">Active &#160;— &#160;background sweep (every 1s)</text>
</g>
<!-- key -->
<g id="node1" class="node">
<title>key</title>
<path fill="#fce4ec" stroke="#455a64" stroke-width="1.5" d="M283,-476.1C283,-478.77 252.07,-480.94 214,-480.94 175.93,-480.94 145,-478.77 145,-476.1 145,-476.1 145,-432.53 145,-432.53 145,-429.86 175.93,-427.69 214,-427.69 252.07,-427.69 283,-429.86 283,-432.53 283,-432.53 283,-476.1 283,-476.1"/>
<path fill="none" stroke="#455a64" stroke-width="1.5" d="M283,-476.1C283,-473.43 252.07,-471.26 214,-471.26 175.93,-471.26 145,-473.43 145,-476.1"/>
<text text-anchor="middle" x="214" y="-450.61" font-family="Helvetica,sans-Serif" font-size="14.00">key with a TTL</text>
</g>
<!-- access -->
<g id="node2" class="node">
<title>access</title>
<path fill="#e3f2fd" stroke="#455a64" stroke-width="1.5" d="M246.5,-350.5C246.5,-350.5 139.5,-350.5 139.5,-350.5 133.5,-350.5 127.5,-344.5 127.5,-338.5 127.5,-338.5 127.5,-323.5 127.5,-323.5 127.5,-317.5 133.5,-311.5 139.5,-311.5 139.5,-311.5 246.5,-311.5 246.5,-311.5 252.5,-311.5 258.5,-317.5 258.5,-323.5 258.5,-323.5 258.5,-338.5 258.5,-338.5 258.5,-344.5 252.5,-350.5 246.5,-350.5"/>
<text text-anchor="middle" x="193" y="-327.3" font-family="Helvetica,sans-Serif" font-size="14.00">GET / TTL / ...</text>
</g>
<!-- key&#45;&gt;access -->
<g id="edge8" class="edge">
<title>key&#45;&gt;access</title>
<path fill="none" stroke="#78909c" stroke-dasharray="5,2" d="M201.75,-427.56C201.75,-427.56 201.75,-360.83 201.75,-360.83"/>
<polygon fill="#78909c" stroke="#78909c" points="205.25,-360.83 201.75,-350.83 198.25,-360.83 205.25,-360.83"/>
<text text-anchor="middle" x="231.5" y="-395.9" font-family="Helvetica,sans-Serif" font-size="12.00">touched</text>
</g>
<!-- sample -->
<g id="node7" class="node">
<title>sample</title>
<path fill="#fff3e0" stroke="#455a64" stroke-width="1.5" d="M438.5,-358C438.5,-358 315.5,-358 315.5,-358 309.5,-358 303.5,-352 303.5,-346 303.5,-346 303.5,-316 303.5,-316 303.5,-310 309.5,-304 315.5,-304 315.5,-304 438.5,-304 438.5,-304 444.5,-304 450.5,-310 450.5,-316 450.5,-316 450.5,-346 450.5,-346 450.5,-352 444.5,-358 438.5,-358"/>
<text text-anchor="middle" x="377" y="-334.8" font-family="Helvetica,sans-Serif" font-size="14.00">sample 20 keys</text>
<text text-anchor="middle" x="377" y="-319.8" font-family="Helvetica,sans-Serif" font-size="14.00">that have a TTL</text>
</g>
<!-- key&#45;&gt;sample -->
<g id="edge9" class="edge">
<title>key&#45;&gt;sample</title>
<path fill="none" stroke="#78909c" stroke-dasharray="5,2" d="M283.18,-431C300.37,-431 314,-431 314,-431 314,-431 314,-368.06 314,-368.06"/>
<polygon fill="#78909c" stroke="#78909c" points="317.5,-368.06 314,-358.06 310.5,-368.06 317.5,-368.06"/>
<text text-anchor="middle" x="335" y="-395.9" font-family="Helvetica,sans-Serif" font-size="12.00">sampled</text>
</g>
<!-- lcheck -->
<g id="node3" class="node">
<title>lcheck</title>
<path fill="#fff3e0" stroke="#455a64" stroke-width="1.5" d="M167.85,-254.56C167.85,-254.56 92.15,-224.44 92.15,-224.44 86.57,-222.22 86.57,-217.78 92.15,-215.56 92.15,-215.56 167.85,-185.44 167.85,-185.44 173.43,-183.22 184.57,-183.22 190.15,-185.44 190.15,-185.44 265.85,-215.56 265.85,-215.56 271.43,-217.78 271.43,-222.22 265.85,-224.44 265.85,-224.44 190.15,-254.56 190.15,-254.56 184.57,-256.78 173.43,-256.78 167.85,-254.56"/>
<text text-anchor="middle" x="179" y="-216.3" font-family="Helvetica,sans-Serif" font-size="14.00">expired?</text>
</g>
<!-- access&#45;&gt;lcheck -->
<g id="edge1" class="edge">
<title>access&#45;&gt;lcheck</title>
<path fill="none" stroke="#78909c" d="M193,-311.41C193,-311.41 193,-263.76 193,-263.76"/>
<polygon fill="#78909c" stroke="#78909c" points="196.5,-263.76 193,-253.76 189.5,-263.76 196.5,-263.76"/>
</g>
<!-- ldel -->
<g id="node4" class="node">
<title>ldel</title>
<path fill="#ffebee" stroke="#455a64" stroke-width="1.5" d="M106,-97C106,-97 28,-97 28,-97 22,-97 16,-91 16,-85 16,-85 16,-55 16,-55 16,-49 22,-43 28,-43 28,-43 106,-43 106,-43 112,-43 118,-49 118,-55 118,-55 118,-85 118,-85 118,-91 112,-97 106,-97"/>
<text text-anchor="middle" x="67" y="-73.8" font-family="Helvetica,sans-Serif" font-size="14.00">delete</text>
<text text-anchor="middle" x="67" y="-58.8" font-family="Helvetica,sans-Serif" font-size="14.00">return nil</text>
</g>
<!-- lcheck&#45;&gt;ldel -->
<g id="edge2" class="edge">
<title>lcheck&#45;&gt;ldel</title>
<path fill="none" stroke="#78909c" d="M99.5,-212.36C99.5,-212.36 99.5,-107.16 99.5,-107.16"/>
<polygon fill="#78909c" stroke="#78909c" points="103,-107.16 99.5,-97.16 96,-107.16 103,-107.16"/>
<text text-anchor="middle" x="111.5" y="-149.4" font-family="Helvetica,sans-Serif" font-size="12.00">yes</text>
</g>
<!-- lret -->
<g id="node5" class="node">
<title>lret</title>
<path fill="#e8f5e9" stroke="#455a64" stroke-width="1.5" d="M265.5,-89.5C265.5,-89.5 166.5,-89.5 166.5,-89.5 160.5,-89.5 154.5,-83.5 154.5,-77.5 154.5,-77.5 154.5,-62.5 154.5,-62.5 154.5,-56.5 160.5,-50.5 166.5,-50.5 166.5,-50.5 265.5,-50.5 265.5,-50.5 271.5,-50.5 277.5,-56.5 277.5,-62.5 277.5,-62.5 277.5,-77.5 277.5,-77.5 277.5,-83.5 271.5,-89.5 265.5,-89.5"/>
<text text-anchor="middle" x="216" y="-66.3" font-family="Helvetica,sans-Serif" font-size="14.00">return value</text>
</g>
<!-- lcheck&#45;&gt;lret -->
<g id="edge3" class="edge">
<title>lcheck&#45;&gt;lret</title>
<path fill="none" stroke="#78909c" d="M215.75,-195.57C215.75,-195.57 215.75,-99.64 215.75,-99.64"/>
<polygon fill="#78909c" stroke="#78909c" points="219.25,-99.64 215.75,-89.64 212.25,-99.64 219.25,-99.64"/>
<text text-anchor="middle" x="205" y="-149.4" font-family="Helvetica,sans-Serif" font-size="12.00">no</text>
</g>
<!-- tick -->
<g id="node6" class="node">
<title>tick</title>
<path fill="#e3f2fd" stroke="#455a64" stroke-width="1.5" d="M417.5,-473.81C417.5,-473.81 336.5,-473.81 336.5,-473.81 330.5,-473.81 324.5,-467.81 324.5,-461.81 324.5,-461.81 324.5,-446.81 324.5,-446.81 324.5,-440.81 330.5,-434.81 336.5,-434.81 336.5,-434.81 417.5,-434.81 417.5,-434.81 423.5,-434.81 429.5,-440.81 429.5,-446.81 429.5,-446.81 429.5,-461.81 429.5,-461.81 429.5,-467.81 423.5,-473.81 417.5,-473.81"/>
<text text-anchor="middle" x="377" y="-450.61" font-family="Helvetica,sans-Serif" font-size="14.00">timer tick</text>
</g>
<!-- tick&#45;&gt;sample -->
<g id="edge4" class="edge">
<title>tick&#45;&gt;sample</title>
<path fill="none" stroke="#78909c" d="M377,-434.77C377,-434.77 377,-368.24 377,-368.24"/>
<polygon fill="#78909c" stroke="#78909c" points="380.5,-368.24 377,-358.24 373.5,-368.24 380.5,-368.24"/>
</g>
<!-- adel -->
<g id="node8" class="node">
<title>adel</title>
<path fill="#ffebee" stroke="#455a64" stroke-width="1.5" d="M429,-247C429,-247 325,-247 325,-247 319,-247 313,-241 313,-235 313,-235 313,-205 313,-205 313,-199 319,-193 325,-193 325,-193 429,-193 429,-193 435,-193 441,-199 441,-205 441,-205 441,-235 441,-235 441,-241 435,-247 429,-247"/>
<text text-anchor="middle" x="377" y="-223.8" font-family="Helvetica,sans-Serif" font-size="14.00">delete the</text>
<text text-anchor="middle" x="377" y="-208.8" font-family="Helvetica,sans-Serif" font-size="14.00">expired ones</text>
</g>
<!-- sample&#45;&gt;adel -->
<g id="edge5" class="edge">
<title>sample&#45;&gt;adel</title>
<path fill="none" stroke="#78909c" d="M377,-303.85C377,-303.85 377,-257.26 377,-257.26"/>
<polygon fill="#78909c" stroke="#78909c" points="380.5,-257.26 377,-247.26 373.5,-257.26 380.5,-257.26"/>
</g>
<!-- again -->
<g id="node9" class="node">
<title>again</title>
<path fill="#fff3e0" stroke="#455a64" stroke-width="1.5" d="M452.49,-118.21C452.49,-118.21 375.51,-75.79 375.51,-75.79 370.26,-72.9 370.26,-67.1 375.51,-64.21 375.51,-64.21 452.49,-21.79 452.49,-21.79 457.74,-18.9 468.26,-18.9 473.51,-21.79 473.51,-21.79 550.49,-64.21 550.49,-64.21 555.74,-67.1 555.74,-72.9 550.49,-75.79 550.49,-75.79 473.51,-118.21 473.51,-118.21 468.26,-121.1 457.74,-121.1 452.49,-118.21"/>
<text text-anchor="middle" x="463" y="-73.8" font-family="Helvetica,sans-Serif" font-size="14.00">&gt; 25%</text>
<text text-anchor="middle" x="463" y="-58.8" font-family="Helvetica,sans-Serif" font-size="14.00">expired?</text>
</g>
<!-- adel&#45;&gt;again -->
<g id="edge6" class="edge">
<title>adel&#45;&gt;again</title>
<path fill="none" stroke="#78909c" d="M403,-192.84C403,-192.84 403,-101.15 403,-101.15"/>
<polygon fill="#78909c" stroke="#78909c" points="406.5,-101.15 403,-91.15 399.5,-101.15 406.5,-101.15"/>
</g>
<!-- again&#45;&gt;sample -->
<g id="edge7" class="edge">
<title>again&#45;&gt;sample</title>
<path fill="none" stroke="#78909c" d="M445.75,-114.57C445.75,-114.57 445.75,-293.81 445.75,-293.81"/>
<polygon fill="#78909c" stroke="#78909c" points="442.25,-293.81 445.75,-303.81 449.25,-293.81 442.25,-293.81"/>
<text text-anchor="middle" x="546.5" y="-216.9" font-family="Helvetica,sans-Serif" font-size="12.00">yes, repeat</text>
</g>
</g>
</svg>
