<?xml version="1.0" encoding="UTF-8" standalone="no"?>
<!DOCTYPE svg PUBLIC "-//W3C//DTD SVG 1.1//EN"
 "http://www.w3.org/Graphics/SVG/1.1/DTD/svg11.dtd">
<!-- Generated by graphviz version 2.43.0 (0)
 -->
<!-- Title: phases Pages: 1 -->
<svg width="441pt" height="736pt"
 viewBox="0.00 0.00 440.60 735.60" xmlns="http://www.w3.org/2000/svg" xmlns:xlink="http://www.w3.org/1999/xlink">
<g id="graph0" class="graph" transform="scale(1 1) rotate(0) translate(28.8 706.8)">
<title>phases</title>
<polygon fill="white" stroke="transparent" points="-28.8,28.8 -28.8,-706.8 411.8,-706.8 411.8,28.8 -28.8,28.8"/>
<!-- p0 -->
<g id="node1" class="node">
<title>p0</title>
<path fill="#e3f2fd" stroke="#455a64" stroke-width="1.5" d="M330,-678C330,-678 53,-678 53,-678 47,-678 41,-672 41,-666 41,-666 41,-651 41,-651 41,-645 47,-639 53,-639 53,-639 330,-639 330,-639 336,-639 342,-645 342,-651 342,-651 342,-666 342,-666 342,-672 336,-678 330,-678"/>
<text text-anchor="middle" x="191.5" y="-654.8" font-family="Helvetica,sans-Serif" font-size="14.00">0 &#160;· &#160;PING &#160;&#160;&#160;&#160;&#160;&#160;&#160;&#160;&#160;&#160;&#160;&#160;&#160;&#160;&#160;&#160;— &#160;TCP + RESP2</text>
</g>
<!-- p1 -->
<g id="node2" class="node">
<title>p1</title>
<path fill="#e3f2fd" stroke="#455a64" stroke-width="1.5" d="M371,-607C371,-607 12,-607 12,-607 6,-607 0,-601 0,-595 0,-595 0,-580 0,-580 0,-574 6,-568 12,-568 12,-568 371,-568 371,-568 377,-568 383,-574 383,-580 383,-580 383,-595 383,-595 383,-601 377,-607 371,-607"/>
<text text-anchor="middle" x="191.5" y="-583.8" font-family="Helvetica,sans-Serif" font-size="14.00">1 &#160;· &#160;Strings &#160;&#160;&#160;&#160;&#160;&#160;&#160;&#160;&#160;&#160;&#160;&#160;&#160;— &#160;SET / GET / DEL / EXISTS</text>
</g>
<!-- p0&#45;&gt;p1 -->
<g id="edge1" class="edge">
<title>p0&#45;&gt;p1</title>
<path fill="none" stroke="#78909c" d="M191.5,-638.72C191.5,-638.72 191.5,-616.17 191.5,-616.17"/>
<polygon fill="#78909c" stroke="#78909c" points="194.65,-616.17 191.5,-607.17 188.35,-616.17 194.65,-616.17"/>
</g>
<!-- p2 -->
<g id="node3" class="node">
<title>p2</title>
<path fill="#e3f2fd" stroke="#455a64" stroke-width="1.5" d="M368.5,-536C368.5,-536 14.5,-536 14.5,-536 8.5,-536 2.5,-530 2.5,-524 2.5,-524 2.5,-509 2.5,-509 2.5,-503 8.5,-497 14.5,-497 14.5,-497 368.5,-497 368.5,-497 374.5,-497 380.5,-503 380.5,-509 380.5,-509 380.5,-524 380.5,-524 380.5,-530 374.5,-536 368.5,-536"/>
<text text-anchor="middle" x="191.5" y="-512.8" font-family="Helvetica,sans-Serif" font-size="14.00">2 &#160;· &#160;Expiration &#160;&#160;&#160;&#160;&#160;&#160;&#160;&#160;&#160;&#160;— &#160;EXPIRE / TTL / PERSIST</text>
</g>
<!-- p1&#45;&gt;p2 -->
<g id="edge2" class="edge">
<title>p1&#45;&gt;p2</title>
<path fill="none" stroke="#78909c" d="M191.5,-567.72C191.5,-567.72 191.5,-545.17 191.5,-545.17"/>
<polygon fill="#78909c" stroke="#78909c" points="194.65,-545.17 191.5,-536.17 188.35,-545.17 194.65,-545.17"/>
</g>
<!-- p3 -->
<g id="node4" class="node">
<title>p3</title>
<path fill="#e3f2fd" stroke="#455a64" stroke-width="1.5" d="M333.5,-465C333.5,-465 49.5,-465 49.5,-465 43.5,-465 37.5,-459 37.5,-453 37.5,-453 37.5,-438 37.5,-438 37.5,-432 43.5,-426 49.5,-426 49.5,-426 333.5,-426 333.5,-426 339.5,-426 345.5,-432 345.5,-438 345.5,-438 345.5,-453 345.5,-453 345.5,-459 339.5,-465 333.5,-465"/>
<text text-anchor="middle" x="191.5" y="-441.8" font-family="Helvetica,sans-Serif" font-size="14.00">3 &#160;· &#160;Counters &#160;&#160;&#160;&#160;&#160;&#160;&#160;&#160;&#160;&#160;&#160;&#160;— &#160;INCR / DECR</text>
</g>
<!-- p2&#45;&gt;p3 -->
<g id="edge3" class="edge">
<title>p2&#45;&gt;p3</title>
<path fill="none" stroke="#78909c" d="M191.5,-496.72C191.5,-496.72 191.5,-474.17 191.5,-474.17"/>
<polygon fill="#78909c" stroke="#78909c" points="194.65,-474.17 191.5,-465.17 188.35,-474.17 194.65,-474.17"/>
</g>
<!-- p4 -->
<g id="node5" class="node">
<title>p4</title>
<path fill="#e3f2fd" stroke="#455a64" stroke-width="1.5" d="M369.5,-394C369.5,-394 13.5,-394 13.5,-394 7.5,-394 1.5,-388 1.5,-382 1.5,-382 1.5,-367 1.5,-367 1.5,-361 7.5,-355 13.5,-355 13.5,-355 369.5,-355 369.5,-355 375.5,-355 381.5,-361 381.5,-367 381.5,-367 381.5,-382 381.5,-382 381.5,-388 375.5,-394 369.5,-394"/>
<text text-anchor="middle" x="191.5" y="-370.8" font-family="Helvetica,sans-Serif" font-size="14.00">4 &#160;· &#160;Lists &#160;&#160;&#160;&#160;&#160;&#160;&#160;&#160;&#160;&#160;&#160;&#160;&#160;&#160;&#160;— &#160;LPUSH / RPUSH / LRANGE</text>
</g>
<!-- p3&#45;&gt;p4 -->
<g id="edge4" class="edge">
<title>p3&#45;&gt;p4</title>
<path fill="none" stroke="#78909c" d="M191.5,-425.72C191.5,-425.72 191.5,-403.17 191.5,-403.17"/>
<polygon fill="#78909c" stroke="#78909c" points="194.65,-403.17 191.5,-394.17 188.35,-403.17 194.65,-403.17"/>
</g>
<!-- p5 -->
<g id="node6" class="node">
<title>p5</title>
<path fill="#e3f2fd" stroke="#455a64" stroke-width="1.5" d="M370.5,-323C370.5,-323 12.5,-323 12.5,-323 6.5,-323 0.5,-317 0.5,-311 0.5,-311 0.5,-296 0.5,-296 0.5,-290 6.5,-284 12.5,-284 12.5,-284 370.5,-284 370.5,-284 376.5,-284 382.5,-290 382.5,-296 382.5,-296 382.5,-311 382.5,-311 382.5,-317 376.5,-323 370.5,-323"/>
<text text-anchor="middle" x="191.5" y="-299.8" font-family="Helvetica,sans-Serif" font-size="14.00">5 &#160;· &#160;Hashes &#160;&#160;&#160;&#160;&#160;&#160;&#160;&#160;&#160;&#160;&#160;&#160;&#160;&#160;— &#160;HSET / HGET / HGETALL</text>
</g>
<!-- p4&#45;&gt;p5 -->
<g id="edge5" class="edge">
<title>p4&#45;&gt;p5</title>
<path fill="none" stroke="#78909c" d="M191.5,-354.72C191.5,-354.72 191.5,-332.17 191.5,-332.17"/>
<polygon fill="#78909c" stroke="#78909c" points="194.65,-332.17 191.5,-323.17 188.35,-332.17 194.65,-332.17"/>
</g>
<!-- p6 -->
<g id="node7" class="node">
<title>p6</title>
<path fill="#e3f2fd" stroke="#455a64" stroke-width="1.5" d="M340.5,-252C340.5,-252 42.5,-252 42.5,-252 36.5,-252 30.5,-246 30.5,-240 30.5,-240 30.5,-225 30.5,-225 30.5,-219 36.5,-213 42.5,-213 42.5,-213 340.5,-213 340.5,-213 346.5,-213 352.5,-219 352.5,-225 352.5,-225 352.5,-240 352.5,-240 352.5,-246 346.5,-252 340.5,-252"/>
<text text-anchor="middle" x="191.5" y="-228.8" font-family="Helvetica,sans-Serif" font-size="14.00">6 &#160;· &#160;Persistence &#160;&#160;&#160;&#160;&#160;&#160;&#160;&#160;&#160;— &#160;RDB snapshot</text>
</g>
<!-- p5&#45;&gt;p6 -->
<g id="edge6" class="edge">
<title>p5&#45;&gt;p6</title>
<path fill="none" stroke="#78909c" d="M191.5,-283.72C191.5,-283.72 191.5,-261.17 191.5,-261.17"/>
<polygon fill="#78909c" stroke="#78909c" points="194.65,-261.17 191.5,-252.17 188.35,-261.17 194.65,-261.17"/>
</g>
<!-- p7 -->
<g id="node8" class="node">
<title>p7</title>
<path fill="#e3f2fd" stroke="#455a64" stroke-width="1.5" d="M350.5,-181C350.5,-181 32.5,-181 32.5,-181 26.5,-181 20.5,-175 20.5,-169 20.5,-169 20.5,-154 20.5,-154 20.5,-148 26.5,-142 32.5,-142 32.5,-142 350.5,-142 350.5,-142 356.5,-142 362.5,-148 362.5,-154 362.5,-154 362.5,-169 362.5,-169 362.5,-175 356.5,-181 350.5,-181"/>
<text text-anchor="middle" x="191.5" y="-157.8" font-family="Helvetica,sans-Serif" font-size="14.00">7 &#160;· &#160;Eviction &#160;&#160;&#160;&#160;&#160;&#160;&#160;&#160;&#160;&#160;&#160;&#160;— &#160;LRU / maxmemory</text>
</g>
<!-- p6&#45;&gt;p7 -->
<g id="edge7" class="edge">
<title>p6&#45;&gt;p7</title>
<path fill="none" stroke="#78909c" d="M191.5,-212.72C191.5,-212.72 191.5,-190.17 191.5,-190.17"/>
<polygon fill="#78909c" stroke="#78909c" points="194.65,-190.17 191.5,-181.17 188.35,-190.17 194.65,-190.17"/>
</g>
<!-- p8 -->
<g id="node9" class="node">
<title>p8</title>
<path fill="#e3f2fd" stroke="#455a64" stroke-width="1.5" d="M359,-110C359,-110 24,-110 24,-110 18,-110 12,-104 12,-98 12,-98 12,-83 12,-83 12,-77 18,-71 24,-71 24,-71 359,-71 359,-71 365,-71 371,-77 371,-83 371,-83 371,-98 371,-98 371,-104 365,-110 359,-110"/>
<text text-anchor="middle" x="191.5" y="-86.8" font-family="Helvetica,sans-Serif" font-size="14.00">8 &#160;· &#160;Tooling &#160;&#160;&#160;&#160;&#160;&#160;&#160;&#160;&#160;&#160;&#160;&#160;&#160;— &#160;INFO / DBSIZE / KEYS</text>
</g>
<!-- p7&#45;&gt;p8 -->
<g id="edge8" class="edge">
<title>p7&#45;&gt;p8</title>
<path fill="none" stroke="#78909c" d="M191.5,-141.72C191.5,-141.72 191.5,-119.17 191.5,-119.17"/>
<polygon fill="#78909c" stroke="#78909c" points="194.65,-119.17 191.5,-110.17 188.35,-119.17 194.65,-119.17"/>
</g>
<!-- p9 -->
<g id="node10" class="node">
<title>p9</title>
<path fill="#f3e5f5" stroke="#455a64" stroke-width="1.5" d="M338.5,-39C338.5,-39 44.5,-39 44.5,-39 38.5,-39 32.5,-33 32.5,-27 32.5,-27 32.5,-12 32.5,-12 32.5,-6 38.5,0 44.5,0 44.5,0 338.5,0 338.5,0 344.5,0 350.5,-6 350.5,-12 350.5,-12 350.5,-27 350.5,-27 350.5,-33 344.5,-39 338.5,-39"/>
<text text-anchor="middle" x="191.5" y="-15.8" font-family="Helvetica,sans-Serif" font-size="14.00">9 &#160;· &#160;Replication &#160;&#160;&#160;&#160;&#160;&#160;&#160;&#160;&#160;— &#160;master&#45;replica</text>
</g>
<!-- p8&#45;&gt;p9 -->
<g id="edge9" class="edge">
<title>p8&#45;&gt;p9</title>
<path fill="none" stroke="#78909c" d="M191.5,-70.72C191.5,-70.72 191.5,-48.17 191.5,-48.17"/>
<polygon fill="#78909c" stroke="#78909c" points="194.65,-48.17 191.5,-39.17 188.35,-48.17 194.65,-48.17"/>
</g>
</g>
</svg>
