<?xml version="1.0" encoding="UTF-8" standalone="no"?>
<!DOCTYPE svg PUBLIC "-//W3C//DTD SVG 1.1//EN"
 "http://www.w3.org/Graphics/SVG/1.1/DTD/svg11.dtd">
<!-- Generated by graphviz version 2.43.0 (0)
 -->
<!-- Title: phases Pages: 1 -->
<svg width="1304pt" height="94pt"
 viewBox="0.00 0.00 1304.20 94.20" xmlns="http://www.w3.org/2000/svg" xmlns:xlink="http://www.w3.org/1999/xlink">
<g id="graph0" class="graph" transform="scale(1 1) rotate(0) translate(21.6 72.6)">
<title>phases</title>
<polygon fill="white" stroke="transparent" points="-21.6,21.6 -21.6,-72.6 1282.6,-72.6 1282.6,21.6 -21.6,21.6"/>
<!-- p0 -->
<g id="node1" class="node">
<title>p0</title>
<path fill="#e3f2fd" stroke="#455a64" stroke-width="1.2" d="M76,-51C76,-51 12,-51 12,-51 6,-51 0,-45 0,-39 0,-39 0,-12 0,-12 0,-6 6,0 12,0 12,0 76,0 76,0 82,0 88,-6 88,-12 88,-12 88,-39 88,-39 88,-45 82,-51 76,-51"/>
<text text-anchor="middle" x="44" y="-34" font-family="Helvetica,sans-Serif" font-size="10.00">0</text>
<text text-anchor="middle" x="44" y="-23" font-family="Helvetica,sans-Serif" font-size="10.00">PING</text>
<text text-anchor="middle" x="44" y="-12" font-family="Helvetica,sans-Serif" font-size="10.00">TCP + RESP2</text>
</g>
<!-- p1 -->
<g id="node2" class="node">
<title>p1</title>
<path fill="#e3f2fd" stroke="#455a64" stroke-width="1.2" d="M211,-51C211,-51 136,-51 136,-51 130,-51 124,-45 124,-39 124,-39 124,-12 124,-12 124,-6 130,0 136,0 136,0 211,0 211,0 217,0 223,-6 223,-12 223,-12 223,-39 223,-39 223,-45 217,-51 211,-51"/>
<text text-anchor="middle" x="173.5" y="-34" font-family="Helvetica,sans-Serif" font-size="10.00">1</text>
<text text-anchor="middle" x="173.5" y="-23" font-family="Helvetica,sans-Serif" font-size="10.00">Strings</text>
<text text-anchor="middle" x="173.5" y="-12" font-family="Helvetica,sans-Serif" font-size="10.00">SET / GET / DEL</text>
</g>
<!-- p0&#45;&gt;p1 -->
<g id="edge1" class="edge">
<title>p0&#45;&gt;p1</title>
<path fill="none" stroke="#78909c" d="M88.17,-25.5C97.26,-25.5 106.98,-25.5 116.47,-25.5"/>
<polygon fill="#78909c" stroke="#78909c" points="116.67,-27.95 123.67,-25.5 116.67,-23.05 116.67,-27.95"/>
</g>
<!-- p2 -->
<g id="node3" class="node">
<title>p2</title>
<path fill="#e3f2fd" stroke="#455a64" stroke-width="1.2" d="M332,-51C332,-51 271,-51 271,-51 265,-51 259,-45 259,-39 259,-39 259,-12 259,-12 259,-6 265,0 271,0 271,0 332,0 332,0 338,0 344,-6 344,-12 344,-12 344,-39 344,-39 344,-45 338,-51 332,-51"/>
<text text-anchor="middle" x="301.5" y="-34" font-family="Helvetica,sans-Serif" font-size="10.00">2</text>
<text text-anchor="middle" x="301.5" y="-23" font-family="Helvetica,sans-Serif" font-size="10.00">Expiration</text>
<text text-anchor="middle" x="301.5" y="-12" font-family="Helvetica,sans-Serif" font-size="10.00">EXPIRE / TTL</text>
</g>
<!-- p1&#45;&gt;p2 -->
<g id="edge2" class="edge">
<title>p1&#45;&gt;p2</title>
<path fill="none" stroke="#78909c" d="M223.21,-25.5C232.6,-25.5 242.42,-25.5 251.8,-25.5"/>
<polygon fill="#78909c" stroke="#78909c" points="251.88,-27.95 258.88,-25.5 251.88,-23.05 251.88,-27.95"/>
</g>
<!-- p3 -->
<g id="node4" class="node">
<title>p3</title>
<path fill="#e3f2fd" stroke="#455a64" stroke-width="1.2" d="M453,-51C453,-51 392,-51 392,-51 386,-51 380,-45 380,-39 380,-39 380,-12 380,-12 380,-6 386,0 392,0 392,0 453,0 453,0 459,0 465,-6 465,-12 465,-12 465,-39 465,-39 465,-45 459,-51 453,-51"/>
<text text-anchor="middle" x="422.5" y="-34" font-family="Helvetica,sans-Serif" font-size="10.00">3</text>
<text text-anchor="middle" x="422.5" y="-23" font-family="Helvetica,sans-Serif" font-size="10.00">Counters</text>
<text text-anchor="middle" x="422.5" y="-12" font-family="Helvetica,sans-Serif" font-size="10.00">INCR / DECR</text>
</g>
<!-- p2&#45;&gt;p3 -->
<g id="edge3" class="edge">
<title>p2&#45;&gt;p3</title>
<path fill="none" stroke="#78909c" d="M344.12,-25.5C353.31,-25.5 363.12,-25.5 372.57,-25.5"/>
<polygon fill="#78909c" stroke="#78909c" points="372.7,-27.95 379.7,-25.5 372.7,-23.05 372.7,-27.95"/>
</g>
<!-- p4 -->
<g id="node5" class="node">
<title>p4</title>
<path fill="#e3f2fd" stroke="#455a64" stroke-width="1.2" d="M595,-51C595,-51 513,-51 513,-51 507,-51 501,-45 501,-39 501,-39 501,-12 501,-12 501,-6 507,0 513,0 513,0 595,0 595,0 601,0 607,-6 607,-12 607,-12 607,-39 607,-39 607,-45 601,-51 595,-51"/>
<text text-anchor="middle" x="554" y="-34" font-family="Helvetica,sans-Serif" font-size="10.00">4</text>
<text text-anchor="middle" x="554" y="-23" font-family="Helvetica,sans-Serif" font-size="10.00">Lists</text>
<text text-anchor="middle" x="554" y="-12" font-family="Helvetica,sans-Serif" font-size="10.00">LPUSH / LRANGE</text>
</g>
<!-- p3&#45;&gt;p4 -->
<g id="edge4" class="edge">
<title>p3&#45;&gt;p4</title>
<path fill="none" stroke="#78909c" d="M465.19,-25.5C474.35,-25.5 484.22,-25.5 493.92,-25.5"/>
<polygon fill="#78909c" stroke="#78909c" points="493.94,-27.95 500.94,-25.5 493.94,-23.05 493.94,-27.95"/>
</g>
<!-- p5 -->
<g id="node6" class="node">
<title>p5</title>
<path fill="#e3f2fd" stroke="#455a64" stroke-width="1.2" d="M717,-51C717,-51 655,-51 655,-51 649,-51 643,-45 643,-39 643,-39 643,-12 643,-12 643,-6 649,0 655,0 655,0 717,0 717,0 723,0 729,-6 729,-12 729,-12 729,-39 729,-39 729,-45 723,-51 717,-51"/>
<text text-anchor="middle" x="686" y="-34" font-family="Helvetica,sans-Serif" font-size="10.00">5</text>
<text text-anchor="middle" x="686" y="-23" font-family="Helvetica,sans-Serif" font-size="10.00">Hashes</text>
<text text-anchor="middle" x="686" y="-12" font-family="Helvetica,sans-Serif" font-size="10.00">HSET / HGET</text>
</g>
<!-- p4&#45;&gt;p5 -->
<g id="edge5" class="edge">
<title>p4&#45;&gt;p5</title>
<path fill="none" stroke="#78909c" d="M607.13,-25.5C616.58,-25.5 626.42,-25.5 635.79,-25.5"/>
<polygon fill="#78909c" stroke="#78909c" points="635.85,-27.95 642.85,-25.5 635.85,-23.05 635.85,-27.95"/>
</g>
<!-- p6 -->
<g id="node7" class="node">
<title>p6</title>
<path fill="#e3f2fd" stroke="#455a64" stroke-width="1.2" d="M846,-51C846,-51 777,-51 777,-51 771,-51 765,-45 765,-39 765,-39 765,-12 765,-12 765,-6 771,0 777,0 777,0 846,0 846,0 852,0 858,-6 858,-12 858,-12 858,-39 858,-39 858,-45 852,-51 846,-51"/>
<text text-anchor="middle" x="811.5" y="-34" font-family="Helvetica,sans-Serif" font-size="10.00">6</text>
<text text-anchor="middle" x="811.5" y="-23" font-family="Helvetica,sans-Serif" font-size="10.00">Persistence</text>
<text text-anchor="middle" x="811.5" y="-12" font-family="Helvetica,sans-Serif" font-size="10.00">RDB snapshot</text>
</g>
<!-- p5&#45;&gt;p6 -->
<g id="edge6" class="edge">
<title>p5&#45;&gt;p6</title>
<path fill="none" stroke="#78909c" d="M729.16,-25.5C738.29,-25.5 748.06,-25.5 757.55,-25.5"/>
<polygon fill="#78909c" stroke="#78909c" points="757.73,-27.95 764.73,-25.5 757.73,-23.05 757.73,-27.95"/>
</g>
<!-- p7 -->
<g id="node8" class="node">
<title>p7</title>
<path fill="#e3f2fd" stroke="#455a64" stroke-width="1.2" d="M998,-51C998,-51 906,-51 906,-51 900,-51 894,-45 894,-39 894,-39 894,-12 894,-12 894,-6 900,0 906,0 906,0 998,0 998,0 1004,0 1010,-6 1010,-12 1010,-12 1010,-39 1010,-39 1010,-45 1004,-51 998,-51"/>
<text text-anchor="middle" x="952" y="-34" font-family="Helvetica,sans-Serif" font-size="10.00">7</text>
<text text-anchor="middle" x="952" y="-23" font-family="Helvetica,sans-Serif" font-size="10.00">Eviction</text>
<text text-anchor="middle" x="952" y="-12" font-family="Helvetica,sans-Serif" font-size="10.00">LRU / maxmemory</text>
</g>
<!-- p6&#45;&gt;p7 -->
<g id="edge7" class="edge">
<title>p6&#45;&gt;p7</title>
<path fill="none" stroke="#78909c" d="M858.23,-25.5C867.28,-25.5 876.92,-25.5 886.45,-25.5"/>
<polygon fill="#78909c" stroke="#78909c" points="886.7,-27.95 893.7,-25.5 886.7,-23.05 886.7,-27.95"/>
</g>
<!-- p8 -->
<g id="node9" class="node">
<title>p8</title>
<path fill="#e3f2fd" stroke="#455a64" stroke-width="1.2" d="M1116,-51C1116,-51 1058,-51 1058,-51 1052,-51 1046,-45 1046,-39 1046,-39 1046,-12 1046,-12 1046,-6 1052,0 1058,0 1058,0 1116,0 1116,0 1122,0 1128,-6 1128,-12 1128,-12 1128,-39 1128,-39 1128,-45 1122,-51 1116,-51"/>
<text text-anchor="middle" x="1087" y="-34" font-family="Helvetica,sans-Serif" font-size="10.00">8</text>
<text text-anchor="middle" x="1087" y="-23" font-family="Helvetica,sans-Serif" font-size="10.00">Tooling</text>
<text text-anchor="middle" x="1087" y="-12" font-family="Helvetica,sans-Serif" font-size="10.00">INFO / KEYS</text>
</g>
<!-- p7&#45;&gt;p8 -->
<g id="edge8" class="edge">
<title>p7&#45;&gt;p8</title>
<path fill="none" stroke="#78909c" d="M1010.18,-25.5C1019.62,-25.5 1029.32,-25.5 1038.49,-25.5"/>
<polygon fill="#78909c" stroke="#78909c" points="1038.72,-27.95 1045.72,-25.5 1038.72,-23.05 1038.72,-27.95"/>
</g>
<!-- p9 -->
<g id="node10" class="node">
<title>p9</title>
<path fill="#f3e5f5" stroke="#455a64" stroke-width="1.2" d="M1249,-51C1249,-51 1176,-51 1176,-51 1170,-51 1164,-45 1164,-39 1164,-39 1164,-12 1164,-12 1164,-6 1170,0 1176,0 1176,0 1249,0 1249,0 1255,0 1261,-6 1261,-12 1261,-12 1261,-39 1261,-39 1261,-45 1255,-51 1249,-51"/>
<text text-anchor="middle" x="1212.5" y="-34" font-family="Helvetica,sans-Serif" font-size="10.00">9</text>
<text text-anchor="middle" x="1212.5" y="-23" font-family="Helvetica,sans-Serif" font-size="10.00">Replication</text>
<text text-anchor="middle" x="1212.5" y="-12" font-family="Helvetica,sans-Serif" font-size="10.00">master–replica</text>
</g>
<!-- p8&#45;&gt;p9 -->
<g id="edge9" class="edge">
<title>p8&#45;&gt;p9</title>
<path fill="none" stroke="#78909c" d="M1128.1,-25.5C1137.19,-25.5 1147,-25.5 1156.59,-25.5"/>
<polygon fill="#78909c" stroke="#78909c" points="1156.86,-27.95 1163.86,-25.5 1156.86,-23.05 1156.86,-27.95"/>
</g>
</g>
</svg>
